<?xml version="1.0" encoding="utf-8"?>
<!-- Generator: Adobe Illustrator 26.0.1, SVG Export Plug-In . SVG Version: 6.00 Build 0)  -->
<svg version="1.1" id="Layer_1" xmlns="http://www.w3.org/2000/svg" xmlns:xlink="http://www.w3.org/1999/xlink" x="0px" y="0px"
	 viewBox="0 0 115.7 174" style="enable-background:new 0 0 115.7 174;" xml:space="preserve">
<style type="text/css">
	.st0{fill:#C79E61;}
</style>
<g>
	<path class="st0" d="M43.1,19.6h29.5v4.2c-2.3,0-4.2,0.7-5.7,2.2c-1.6,1.5-2.5,3.3-2.7,5.6v111c0.2,2.1,1.1,3.9,2.5,5.3
		c1.5,1.4,3.4,2.2,5.9,2.4v4.2H43.1v-4.2c2.4,0,4.4-0.8,6-2.4c1.6-1.6,2.4-3.6,2.4-6V31.6c-0.2-2-1.1-3.8-2.6-5.2
		c-1.5-1.5-3.5-2.3-5.8-2.5C43.1,23.9,43.1,19.6,43.1,19.6z"/>
</g>
</svg>
