<?xml version="1.0" encoding="utf-8"?>
<!-- Generator: Adobe Illustrator 26.0.1, SVG Export Plug-In . SVG Version: 6.00 Build 0)  -->
<svg version="1.1" id="Layer_1" xmlns="http://www.w3.org/2000/svg" xmlns:xlink="http://www.w3.org/1999/xlink" x="0px" y="0px"
	 viewBox="0 0 115.7 174" style="enable-background:new 0 0 115.7 174;" xml:space="preserve">
<style type="text/css">
	.st0{fill:#C79E61;}
</style>
<path class="st0" d="M79.5,26c1.5-1.5,3.4-2.2,5.7-2.2v-4.2H59.9h-4.2H30.4l0,0v4.3c2.3,0.2,4.3,1,5.8,2.5c1.5,1.4,2.4,3.2,2.6,5.2
	v110.3c0,2.4-0.8,4.4-2.4,6c-1.6,1.6-3.6,2.4-6,2.4v4.2h25.3h4.2h25.3v-4.2c-2.5-0.2-4.4-1-5.9-2.4c-1.4-1.4-2.3-3.2-2.5-5.3v-111
	C77,29.2,77.9,27.5,79.5,26z M64.1,141.8c0,2.4-0.8,4.4-2.4,6c-1,1-2.3,1.7-3.7,2.1c-1.6-0.4-2.9-1.1-4-2.1
	c-1.4-1.4-2.3-3.2-2.5-5.3v-111c0.2-2.3,1.1-4.1,2.7-5.6c0.9-0.9,1.9-1.5,3.1-1.8c1.6,0.4,3,1.1,4.2,2.2c1.5,1.4,2.4,3.2,2.6,5.2
	V141.8z"/>
</svg>
