<?xml version="1.0" encoding="utf-8"?>
<!-- Generator: Adobe Illustrator 26.0.1, SVG Export Plug-In . SVG Version: 6.00 Build 0)  -->
<svg version="1.1" id="Layer_1" xmlns="http://www.w3.org/2000/svg" xmlns:xlink="http://www.w3.org/1999/xlink" x="0px" y="0px"
	 viewBox="0 0 115.7 174" style="enable-background:new 0 0 115.7 174;" xml:space="preserve">
<style type="text/css">
	.st0{fill:#C79E61;}
</style>
<path class="st0" d="M92.2,26c1.5-1.5,3.4-2.2,5.7-2.2v-4.2H72.6h-4.2l0,0H47.3h-4.2l0,0H17.8v4.3c2.3,0.2,4.3,1,5.8,2.5
	c1.5,1.4,2.4,3.2,2.6,5.2v110.3c0,2.4-0.8,4.4-2.4,6s-3.6,2.4-6,2.4v4.2h25.3h4.2h21.1h4.2h25.3v-4.2c-2.5-0.2-4.4-1-5.9-2.4
	c-1.4-1.4-2.3-3.2-2.5-5.3v-111C89.7,29.2,90.6,27.5,92.2,26z M51.5,141.8c0,2.4-0.8,4.4-2.4,6c-1,1-2.3,1.7-3.7,2.1
	c-1.6-0.4-2.9-1.1-4-2.1c-1.4-1.4-2.3-3.2-2.5-5.3v-111c0.2-2.3,1.1-4.1,2.7-5.6c0.9-0.9,1.9-1.5,3.1-1.8c1.6,0.4,3,1.1,4.2,2.2
	c1.5,1.4,2.4,3.2,2.6,5.2C51.5,31.5,51.5,141.8,51.5,141.8z M76.8,141.8c0,2.4-0.8,4.4-2.4,6c-1,1-2.3,1.7-3.7,2.1
	c-1.6-0.4-2.9-1.1-4-2.1c-1.4-1.4-2.3-3.2-2.5-5.3v-111c0.2-2.3,1.1-4.1,2.7-5.6c0.9-0.9,1.9-1.5,3.1-1.8c1.6,0.4,3,1.1,4.2,2.2
	c1.5,1.4,2.4,3.2,2.6,5.2C76.8,31.5,76.8,141.8,76.8,141.8z"/>
</svg>
