<svg xmlns="http://www.w3.org/2000/svg" xmlns:xlink="http://www.w3.org/1999/xlink" width="99.5" height="77.167" viewBox="0 0 99.5 77.167"><defs><clipPath id="a"><rect width="99.5" height="77.167" fill="#c79e61"/></clipPath></defs><g clip-path="url(#a)"><path d="M81.158,68.173H0V56.811H15.464l-.982-1.3A31.145,31.145,0,0,1,8.994,43.934l-.115-.476L3.246,42.022v-11L8.872,29.6l.115-.477a31.393,31.393,0,0,1,3.79-9.111l.256-.419-2.982-5,7.78-7.778,5,2.98.419-.256a31.364,31.364,0,0,1,9.108-3.79l.477-.115L34.265,0h11l1.424,5.624.477.115a31.4,31.4,0,0,1,9.109,3.79l.419.256,5-2.98,7.78,7.778-2.982,5,.256.419a31.391,31.391,0,0,1,3.79,9.109l.114.477,5.629,1.425v11l-5.637,1.458-.114.474a31.378,31.378,0,0,1-5.467,11.56l-.977,1.3H81.158V47.817L99.5,62.492,81.158,77.167Zm1.623,5.615L96.9,62.492,82.781,51.2v7.238H39.768A22,22,0,1,1,50.995,55.3l-3.014,1.508H61.886l.24-.269a29.989,29.989,0,0,0,7.04-13.889l.1-.493,5.4-1.4V32.283l-5.391-1.365-.1-.5a29.778,29.778,0,0,0-4.308-10.366l-.279-.424,2.855-4.79L61.445,8.846,56.653,11.7l-.422-.278A29.772,29.772,0,0,0,45.866,7.114l-.5-.1L44,1.623H35.529L34.166,7.014l-.5.1A29.812,29.812,0,0,0,23.3,11.425l-.424.279-4.79-2.857-5.994,5.994,2.855,4.79-.279.424a29.812,29.812,0,0,0-4.31,10.366l-.1.5L4.869,32.283v8.476l5.392,1.378.1.5a30.129,30.129,0,0,0,29.4,23.914H82.781ZM1.623,66.55h28.12l-3.667-1.542a31.876,31.876,0,0,1-8.841-6.334L17,58.434H1.623ZM39.768,16.232a20.29,20.29,0,1,0,20.29,20.29,20.312,20.312,0,0,0-20.29-20.29" fill="#c79e61"/><path d="M28.311,31.821l-.519.25a3.967,3.967,0,0,1-1.734.407,4.046,4.046,0,0,1-1.35-7.864l.539-.192V13h1.623V24.422l.539.192a4.061,4.061,0,0,1,2.707,3.806,3.967,3.967,0,0,1-.407,1.734l-.25.519,4.715,4.715-1.148,1.148Zm-2.253-5.835a2.435,2.435,0,1,0,2.435,2.435,2.438,2.438,0,0,0-2.435-2.435" transform="translate(13.71 8.101)" fill="#c79e61"/></g></svg>