<svg xmlns="http://www.w3.org/2000/svg" xmlns:xlink="http://www.w3.org/1999/xlink" width="74.201" height="74.201" viewBox="0 0 74.201 74.201"><defs><clipPath id="a"><rect width="74.201" height="74.201" fill="#c79e61"/></clipPath></defs><g transform="translate(0 0)"><g transform="translate(0 0)" clip-path="url(#a)"><path d="M13.222,74.2a1.285,1.285,0,0,1-1.282-1.283V38.383H1.283a1.283,1.283,0,1,1,0-2.565H11.94V1.282A1.284,1.284,0,0,1,13.222,0h15.92a1.284,1.284,0,0,1,1.282,1.282V35.818H43.778V17.2A1.283,1.283,0,0,1,45.06,15.92h15.92A1.283,1.283,0,0,1,62.261,17.2V35.818H72.918a1.283,1.283,0,1,1,0,2.565H62.261V57a1.284,1.284,0,0,1-1.282,1.282H45.06A1.284,1.284,0,0,1,43.778,57V38.383H30.423V72.918A1.285,1.285,0,0,1,29.141,74.2ZM14.5,71.636H27.858V2.567H14.5ZM46.341,55.718H59.7V18.485H46.341Z" transform="translate(0 0)" fill="#c79e61"/></g></g></svg>