<svg xmlns="http://www.w3.org/2000/svg" width="438.375" height="62" viewBox="0 0 438.375 62"><g transform="translate(-32.3 -107.7)"><rect width="62" height="62" transform="translate(32.3 107.7)" fill="#fff"/><g transform="translate(36.422 110.829)"><path d="M100.212,173.185H46V118.1h54.212ZM98.5,165.333H70.007l6.167-9.386H71.211c.03-.09.03-.15.06-.181.542-.993,1.053-2.016,1.594-3.008a.5.5,0,0,1,.361-.15h9.206c.09,0,.181.03.331.03-2.076,3.129-4.091,6.228-6.137,9.356h17.81q-8.394-17.419-16.817-34.808c-7.581,14.8-15.132,29.513-22.684,44.254H98.527C98.5,169.394,98.5,167.378,98.5,165.333ZM47.384,120.3V171.44h3.008a.464.464,0,0,0,.481-.3c1.655-3.249,3.309-6.468,4.964-9.717,2.407-4.723,4.844-9.447,7.25-14.17q3.475-6.814,6.98-13.628,3.339-6.5,6.649-13.027a3.122,3.122,0,0,0,.12-.3Z" transform="translate(-46 -118.1)" fill="#fff"/><path d="M119.192,186.377v6.077H75.6C83.151,177.713,90.7,163,98.284,148.2c5.626,11.643,11.222,23.2,16.817,34.808H97.291c2.046-3.129,4.091-6.2,6.137-9.356a1.476,1.476,0,0,0-.331-.03H93.891a.5.5,0,0,0-.361.15c-.542.993-1.083,1.986-1.594,3.008-.03.03-.03.09-.06.181H96.84l-6.167,9.386C100.239,186.377,109.686,186.377,119.192,186.377Z" transform="translate(-66.695 -139.145)" fill="#026360"/><path d="M50.6,125.4H80.113a2.075,2.075,0,0,0-.12.3q-3.339,6.5-6.649,13.027-3.475,6.814-6.98,13.628c-2.407,4.723-4.844,9.447-7.25,14.17-1.655,3.249-3.309,6.468-4.964,9.717a.489.489,0,0,1-.481.3c-.993-.03-1.986,0-3.008,0Q50.57,150.957,50.6,125.4Z" transform="translate(-49.216 -123.204)" fill="#00008b"/></g><g transform="translate(108.323 132.429)"><path d="M298.779,203.316h-9.747l-2.106,4.693H285l8-17.509h1.835l8,17.509h-1.955Zm-.692-1.5-4.212-9.416-4.212,9.416Z" transform="translate(-285 -190.32)" fill="#fff"/><path d="M303.424,208.384h-2.782l-2.106-4.693h-9.262l-2.106,4.693h-2.752l8.345-18.259h2.317Zm-2.3-.75h1.129l-7.66-16.759h-1.353l-7.66,16.759h1.1l2.106-4.693h10.233Zm-2.462-5.447h-9.581l4.79-10.71Zm-8.424-.75h7.267l-3.633-8.123Z" transform="translate(-285 -190.32)" fill="#fff"/><path d="M395.25,206.315v1.594H380.9v-1.264l11.613-14.651H381.081V190.4h13.9v1.264L383.4,206.315Z" transform="translate(-352.049 -190.25)" fill="#fff"/><path d="M395.625,208.284h-15.1v-1.769l11.212-14.146H380.706v-2.344h14.649v1.769L384.172,205.94h11.454Zm-14.35-.75h13.6v-.844H382.623L394.6,191.533v-.758H381.456v.844h11.833l-12.013,15.157Z" transform="translate(-352.049 -190.25)" fill="#fff"/><path d="M477.879,203.316h-9.747l-2.106,4.693H464.1l8-17.509h1.835l8,17.509h-1.956Zm-.662-1.5-4.212-9.416-4.212,9.416Z" transform="translate(-410.219 -190.32)" fill="#fff"/><path d="M482.524,208.384h-2.782l-2.106-4.693h-9.262l-2.106,4.693h-2.752l8.345-18.259h2.317Zm-2.3-.75h1.129l-7.66-16.759h-1.353l-7.66,16.759h1.1l2.106-4.693h10.233Zm-2.432-5.447h-9.581l4.79-10.71Zm-8.424-.75h7.267l-3.633-8.123Z" transform="translate(-410.219 -190.32)" fill="#fff"/><path d="M577.674,207.909l-4-5.626a10.656,10.656,0,0,1-1.414.06h-4.693v5.566H565.7V190.4h6.558a8.084,8.084,0,0,1,5.265,1.594,5.46,5.46,0,0,1,1.9,4.392,5.632,5.632,0,0,1-1.053,3.46,5.842,5.842,0,0,1-2.978,2.046l4.272,6.017Zm-1.474-8.273a4.506,4.506,0,0,0,0-6.5,6.124,6.124,0,0,0-3.971-1.143h-4.663v8.785h4.663A6.182,6.182,0,0,0,576.2,199.636Z" transform="translate(-481.253 -190.25)" fill="#fff"/><path d="M580.385,208.284H577.48l-3.985-5.6c-.4.038-.791.038-1.237.038H567.94v5.566h-2.615V190.025h6.933a8.49,8.49,0,0,1,5.5,1.679l.007.006a5.87,5.87,0,0,1,2.026,4.677,5.795,5.795,0,0,1-3.815,5.691Zm-2.518-.75h1.066l-4.147-5.841.485-.158a5.487,5.487,0,0,0,2.793-1.913,5.233,5.233,0,0,0,.979-3.236,5.087,5.087,0,0,0-1.76-4.1,7.772,7.772,0,0,0-5.025-1.508h-6.183v16.759h1.115v-5.566h5.068a10.35,10.35,0,0,0,1.364-.057l.224-.03Zm-5.639-6.38H567.19v-9.535h5.038a6.438,6.438,0,0,1,4.211,1.23,4.879,4.879,0,0,1,.006,7.07l-.01.009A6.555,6.555,0,0,1,572.228,201.154Zm-4.288-.75h4.288a5.847,5.847,0,0,0,3.731-1.056,4.134,4.134,0,0,0,0-5.923,5.809,5.809,0,0,0-3.73-1.056H567.94Z" transform="translate(-481.253 -190.25)" fill="#fff"/><path d="M658.5,190.4h1.865v17.509H658.5Z" transform="translate(-546.135 -190.25)" fill="#fff"/><path d="M658.125,190.025h2.615v18.259h-2.615Zm1.865.75h-1.115v16.759h1.115Z" transform="translate(-546.135 -190.25)" fill="#fff"/><path d="M720.809,203.316h-9.747l-2.106,4.693H707l8-17.509h1.835l8,17.509h-1.956Zm-.692-1.5-4.212-9.416-4.212,9.416Z" transform="translate(-580.044 -190.32)" fill="#fff"/><path d="M725.424,208.384H722.64l-2.076-4.693H711.3l-2.106,4.693h-2.782l8.345-18.259h2.317Zm-2.295-.75h1.128l-7.66-16.759h-1.353l-7.66,16.759h1.129l2.106-4.693h10.234Zm-2.433-5.447h-9.581l4.79-10.71Zm-8.424-.75h7.267l-3.633-8.123Z" transform="translate(-580.044 -190.32)" fill="#fff"/><path d="M805.868,207.078a6.851,6.851,0,0,1-2.768-1.655l.722-1.414a6.923,6.923,0,0,0,2.527,1.534,9.276,9.276,0,0,0,3.249.6,5.946,5.946,0,0,0,3.52-.872,2.652,2.652,0,0,0,1.173-2.226,2.293,2.293,0,0,0-.632-1.685,4.573,4.573,0,0,0-1.564-.963,17.188,17.188,0,0,0-2.587-.722,27.775,27.775,0,0,1-3.159-.963,5.23,5.23,0,0,1-2.016-1.414,3.724,3.724,0,0,1-.842-2.587,4.488,4.488,0,0,1,.692-2.407,4.766,4.766,0,0,1,2.166-1.745,8.6,8.6,0,0,1,3.61-.662,10.909,10.909,0,0,1,2.948.421,8.306,8.306,0,0,1,2.5,1.143l-.632,1.474a8.329,8.329,0,0,0-2.347-1.083,8.9,8.9,0,0,0-2.467-.361,5.8,5.8,0,0,0-3.46.872,2.757,2.757,0,0,0-1.173,2.286,2.293,2.293,0,0,0,.632,1.685,4.05,4.05,0,0,0,1.595.963,25.665,25.665,0,0,0,2.587.722,29.072,29.072,0,0,1,3.1.933,5.016,5.016,0,0,1,2.016,1.414,3.75,3.75,0,0,1,.812,2.527,4.268,4.268,0,0,1-.722,2.407,4.778,4.778,0,0,1-2.2,1.715,9.286,9.286,0,0,1-3.64.632A9.515,9.515,0,0,1,805.868,207.078Z" transform="translate(-647.232 -189.9)" fill="#fff"/><path d="M809.1,208.035a10.071,10.071,0,0,1-3.359-.6,7.213,7.213,0,0,1-2.912-1.748l-.184-.193,1.078-2.11.365.365a6.587,6.587,0,0,0,2.393,1.448,8.943,8.943,0,0,0,3.119.578,5.61,5.61,0,0,0,3.3-.8,2.265,2.265,0,0,0,1.019-1.923,1.927,1.927,0,0,0-.522-1.42,4.2,4.2,0,0,0-1.439-.88,16.89,16.89,0,0,0-2.527-.7l-.012,0a28.5,28.5,0,0,1-3.2-.977,5.563,5.563,0,0,1-2.159-1.512,4.093,4.093,0,0,1-.939-2.839,4.845,4.845,0,0,1,.749-2.605,5.1,5.1,0,0,1,2.329-1.888,9,9,0,0,1,3.765-.7,11.281,11.281,0,0,1,3.05.435,8.654,8.654,0,0,1,2.61,1.2l.251.175-.93,2.169-.375-.25a7.992,7.992,0,0,0-2.242-1.035,8.507,8.507,0,0,0-2.364-.347,5.492,5.492,0,0,0-3.235.8,2.393,2.393,0,0,0-1.023,1.986,1.926,1.926,0,0,0,.522,1.42,3.653,3.653,0,0,0,1.448.872,25.223,25.223,0,0,0,2.55.712l.012,0a29.15,29.15,0,0,1,3.14.946,5.418,5.418,0,0,1,2.166,1.52,4.128,4.128,0,0,1,.9,2.771,4.633,4.633,0,0,1-.785,2.615,5.182,5.182,0,0,1-2.362,1.852,9.588,9.588,0,0,1-3.777.662C809.38,208.032,809.239,208.035,809.1,208.035Zm-5.541-2.685a6.777,6.777,0,0,0,2.433,1.375,9.179,9.179,0,0,0,3.5.551h.019a8.873,8.873,0,0,0,3.494-.6,4.391,4.391,0,0,0,2.031-1.578,3.9,3.9,0,0,0,.659-2.2,3.406,3.406,0,0,0-.722-2.283,4.665,4.665,0,0,0-1.866-1.308,28.44,28.44,0,0,0-3.051-.918,25.955,25.955,0,0,1-2.619-.731,4.395,4.395,0,0,1-1.741-1.053,2.648,2.648,0,0,1-.742-1.95,3.14,3.14,0,0,1,1.32-2.584l.007-.006a6.189,6.189,0,0,1,3.681-.945,9.245,9.245,0,0,1,2.57.375,8.759,8.759,0,0,1,2.072.892l.336-.783a8.124,8.124,0,0,0-2.131-.922,10.533,10.533,0,0,0-2.847-.407,8.276,8.276,0,0,0-3.455.628,4.387,4.387,0,0,0-2,1.6,4.107,4.107,0,0,0-.635,2.208,3.376,3.376,0,0,0,.745,2.336,4.831,4.831,0,0,0,1.872,1.316,27.737,27.737,0,0,0,3.109.947,17.3,17.3,0,0,1,2.641.739,4.922,4.922,0,0,1,1.69,1.046,2.648,2.648,0,0,1,.742,1.95,3.008,3.008,0,0,1-1.327,2.529,6.309,6.309,0,0,1-3.741.945,9.69,9.69,0,0,1-3.38-.625,7.764,7.764,0,0,1-2.286-1.278Z" transform="translate(-647.232 -189.9)" fill="#fff"/><path d="M946.283,206.567A8.566,8.566,0,0,1,943,203.378a9.02,9.02,0,0,1-1.2-4.573,8.73,8.73,0,0,1,1.2-4.573,8.356,8.356,0,0,1,3.279-3.189,9.76,9.76,0,0,1,4.693-1.143,9.511,9.511,0,0,1,3.61.662,7.683,7.683,0,0,1,2.8,1.9l-1.173,1.173a6.96,6.96,0,0,0-5.175-2.076,7.717,7.717,0,0,0-3.791.963,7.136,7.136,0,0,0-2.677,2.587,7.593,7.593,0,0,0,0,7.4,6.718,6.718,0,0,0,2.677,2.587,7.716,7.716,0,0,0,3.791.963,6.826,6.826,0,0,0,5.175-2.106l1.173,1.173a7.508,7.508,0,0,1-2.828,1.925,9.511,9.511,0,0,1-3.61.662A9.642,9.642,0,0,1,946.283,206.567Z" transform="translate(-744.205 -189.9)" fill="#fff"/><path d="M950.946,208.085A10.019,10.019,0,0,1,946.1,206.9l-.005,0a8.959,8.959,0,0,1-3.419-3.328,9.39,9.39,0,0,1-1.254-4.76,9.123,9.123,0,0,1,1.255-4.763,8.689,8.689,0,0,1,3.424-3.329,10.081,10.081,0,0,1,4.872-1.189,9.941,9.941,0,0,1,3.751.689,8.091,8.091,0,0,1,2.932,1.988l.245.265-1.7,1.7-.265-.271a6.6,6.6,0,0,0-4.906-1.963,7.373,7.373,0,0,0-3.609.916,6.73,6.73,0,0,0-2.536,2.45,7.218,7.218,0,0,0,0,7.025,6.318,6.318,0,0,0,2.533,2.444,7.373,7.373,0,0,0,3.609.916,6.434,6.434,0,0,0,4.9-1.99l.265-.277,1.695,1.695-.236.264A7.89,7.89,0,0,1,954.7,207.4,9.941,9.941,0,0,1,950.946,208.085Zm-4.481-1.846a9.278,9.278,0,0,0,4.481,1.1,9.071,9.071,0,0,0,3.469-.634,7.324,7.324,0,0,0,2.446-1.571l-.651-.651a7.268,7.268,0,0,1-5.174,1.952,8.115,8.115,0,0,1-3.972-1.009,7.046,7.046,0,0,1-2.822-2.73,7.968,7.968,0,0,1,0-7.771l.006-.01a7.462,7.462,0,0,1,2.816-2.72,8.115,8.115,0,0,1,3.972-1.009,7.35,7.35,0,0,1,5.171,1.924l.65-.65a7.451,7.451,0,0,0-2.411-1.545,9.071,9.071,0,0,0-3.469-.634,9.34,9.34,0,0,0-4.514,1.1,7.949,7.949,0,0,0-3.134,3.047l0,.005a8.384,8.384,0,0,0-1.15,4.38,8.649,8.649,0,0,0,1.153,4.385A8.22,8.22,0,0,0,946.464,206.239Z" transform="translate(-744.205 -189.9)" fill="#fff"/><path d="M1042.379,203.316h-9.747l-2.106,4.693H1028.6l8-17.509h1.835l8,17.509h-1.955Zm-.662-1.5-4.212-9.416-4.212,9.416Z" transform="translate(-804.892 -190.32)" fill="#fff"/><path d="M1047.024,208.384h-2.782l-2.106-4.693h-9.262l-2.106,4.693h-2.752l8.345-18.259h2.317l.1.219Zm-2.3-.75h1.129l-7.66-16.759h-1.353l-7.66,16.759h1.1l2.106-4.693h10.233Zm-2.432-5.447h-9.581l4.79-10.71Zm-8.424-.75h7.267l-3.633-8.123Z" transform="translate(-804.892 -190.32)" fill="#fff"/><path d="M1142.023,191.994a6.037,6.037,0,0,1,0,8.785,7.972,7.972,0,0,1-5.265,1.594h-4.693v5.536H1130.2V190.4h6.558A7.972,7.972,0,0,1,1142.023,191.994Zm-1.324,7.611a3.9,3.9,0,0,0,1.384-3.219,4.021,4.021,0,0,0-1.384-3.279,6.009,6.009,0,0,0-3.971-1.143h-4.663v8.755h4.663A5.745,5.745,0,0,0,1140.7,199.606Z" transform="translate(-875.926 -190.25)" fill="#fff"/><path d="M1129.825,190.025h6.933a8.374,8.374,0,0,1,5.5,1.681l0,0a5.869,5.869,0,0,1,2.026,4.677,5.786,5.786,0,0,1-2.03,4.68,8.374,8.374,0,0,1-5.5,1.681h-4.318v5.536h-2.615Zm11.956,2.256a7.659,7.659,0,0,0-5.022-1.506h-6.183v16.759h1.115V202h5.068a7.657,7.657,0,0,0,5.025-1.508,5.664,5.664,0,0,0,0-8.21Zm-10.091-.691h5.038a6.33,6.33,0,0,1,4.212,1.231,4.418,4.418,0,0,1,1.518,3.567,4.269,4.269,0,0,1-1.518,3.507,6.049,6.049,0,0,1-4.214,1.2h-5.035Zm5.237,8.756a5.211,5.211,0,0,0,3.526-1.023l.01-.009a3.51,3.51,0,0,0,1.244-2.927,3.655,3.655,0,0,0-1.25-2.992,5.632,5.632,0,0,0-3.73-1.056h-4.288v8h4.295Z" transform="translate(-875.926 -190.25)" fill="#fff"/><path d="M1221.8,190.4h1.865v17.509H1221.8Z" transform="translate(-939.969 -190.25)" fill="#fff"/><path d="M1221.425,190.025h2.615v18.259h-2.615Zm1.865.75h-1.115v16.759h1.115Z" transform="translate(-939.969 -190.25)" fill="#fff"/><path d="M1276.567,191.994H1270.4V190.4h14.17v1.594H1278.4v15.915h-1.865V191.994Z" transform="translate(-973.948 -190.25)" fill="#fff"/><path d="M1270.025,190.025h14.92v2.344h-6.167v15.915h-2.615V192.369h-6.137Zm14.17.75h-13.42v.844h5.792v.375h.345v15.54h1.115V191.619h6.167Z" transform="translate(-973.948 -190.25)" fill="#fff"/><path d="M1361.579,203.316h-9.747l-2.106,4.693H1347.8l8-17.509h1.835l8,17.509h-1.955Zm-.662-1.5L1356.7,192.4l-4.212,9.416Z" transform="translate(-1028.062 -190.32)" fill="#fff"/><path d="M1366.224,208.384h-2.782l-2.106-4.693h-9.262l-2.106,4.693h-2.752l8.345-18.259h2.317l.1.219Zm-2.3-.75h1.129l-7.66-16.759h-1.353l-7.66,16.759h1.1l2.106-4.693h10.233Zm-2.432-5.447h-9.581l4.79-10.71Zm-8.424-.75h7.267l-3.633-8.123Z" transform="translate(-1028.062 -190.32)" fill="#fff"/><path d="M1449.4,190.4h1.865v15.915h9.807v1.594H1449.4Z" transform="translate(-1099.096 -190.25)" fill="#fff"/><path d="M1449.025,190.025h2.615V205.94h9.807v2.344h-12.423Zm1.865.75h-1.115v16.759H1460.7v-.844h-9.807Z" transform="translate(-1099.096 -190.25)" fill="#fff"/></g><path d="M156.3,125.4h19.314v40.7Z" transform="translate(-86.695 -12.375)" fill="#cccbca"/></g></svg>