<svg xmlns="http://www.w3.org/2000/svg" width="74.222" height="74.201" viewBox="0 0 74.222 74.201"><g transform="translate(-606.925 74.075)"><path d="M73.34,33.438S56.573,16.51,55.606,15.7h0a26.921,26.921,0,0,0-9.189-5.32v-.161a2.622,2.622,0,0,0-1.693-2.5l.484-.484a2.676,2.676,0,0,0,0-3.789A2.706,2.706,0,0,0,41.66,3.21a3.373,3.373,0,0,0-.645-.967,2.685,2.685,0,0,0-3.144-.484A2.676,2.676,0,0,0,34.486.066a3.163,3.163,0,0,0-1.129.645S16.349,17.558,15.3,18.767h0v.081h0a27.927,27.927,0,0,0-5,8.786,2.319,2.319,0,0,0-2.015.806,1.935,1.935,0,0,0-.564.967l-.484-.484a2.68,2.68,0,0,0-3.789-.242,2.615,2.615,0,0,0-.242,3.789h0a3.373,3.373,0,0,0-.967.645,2.685,2.685,0,0,0-.484,3.144A2.844,2.844,0,0,0,.711,36.9a2.676,2.676,0,0,0,0,3.789S17.558,57.7,18.767,58.75h0l.081.081a27.927,27.927,0,0,0,8.786,5,2.259,2.259,0,0,0,1.693,2.66l-.484.484a2.676,2.676,0,0,0,0,3.789,2.777,2.777,0,0,0,1.854.806,2.6,2.6,0,0,0,1.693-.645,2.552,2.552,0,0,0,.645.967,2.815,2.815,0,0,0,1.935.806,2.552,2.552,0,0,0,1.29-.322,2.9,2.9,0,0,0,.645.967,2.676,2.676,0,0,0,3.789,0h0S57.54,56.573,58.427,55.606h0a26.921,26.921,0,0,0,5.32-9.189h.242a2.624,2.624,0,0,0,1.854-.806,3.579,3.579,0,0,0,.645-.887l.484.484A2.684,2.684,0,1,0,71,41.66a3.373,3.373,0,0,0,.967-.645,2.685,2.685,0,0,0,.484-3.144,2.315,2.315,0,0,0,1.048-.645A2.838,2.838,0,0,0,73.34,33.438ZM16.591,19.977,34.567,1.92A1.12,1.12,0,0,1,36.1,2a1.208,1.208,0,0,1,0,1.451l-10,10a.8.8,0,0,0,1.129,1.129l11.2-11.124a1.12,1.12,0,0,1,1.532-.081A1.12,1.12,0,0,1,40.048,4.9l-.081.081-11.285,11.2a.779.779,0,0,0,0,1.129h0a.768.768,0,0,0,1.129,0L42.547,4.58a1.121,1.121,0,0,1,1.532,0,1.094,1.094,0,0,1,0,1.532L31.342,18.848a.779.779,0,0,0,0,1.129.844.844,0,0,0,1.129,0l10.56-10.56a1.084,1.084,0,1,1,1.612,1.451l-11.2,11.2.564.564a5.389,5.389,0,0,1,1.29,2.015l.4,1.209,3.789-3.789A1.083,1.083,0,0,1,41.016,23.6h0L30.778,33.841a5.764,5.764,0,0,1-2.66,1.451l-3.386-3.386a2.676,2.676,0,0,0-3.789,0h0a2.676,2.676,0,0,0,0,3.789l2.1,2.1a3.579,3.579,0,0,0-.887.645S12,28.279,11.916,28.279A23.529,23.529,0,0,1,16.591,19.977ZM44.724,37.549a6.363,6.363,0,0,0-2.5,1.612l-5.562,5.562a6.363,6.363,0,0,0-1.612-2.5l-5.562-5.562a6.363,6.363,0,0,0,2.5-1.612l5.562-5.562a6.363,6.363,0,0,0,1.612,2.5ZM19.977,57.54,1.92,39.565A1.12,1.12,0,0,1,2,38.033a1.208,1.208,0,0,1,1.451,0l10.076,10a.759.759,0,0,0,1.129,0,.779.779,0,0,0,0-1.129L3.452,35.7a1.051,1.051,0,0,1,.081-1.532,1.022,1.022,0,0,1,1.451,0l11.2,11.2a.8.8,0,0,0,1.129-1.129L4.58,31.584a1.083,1.083,0,1,1,1.532-1.532h0L18.848,42.789a.8.8,0,1,0,1.129-1.129S9.981,31.584,9.5,31.1a1.2,1.2,0,0,1,0-1.532,1.121,1.121,0,0,1,1.532,0L22.153,40.693l.564-.564a5.389,5.389,0,0,1,2.015-1.29l1.209-.4-3.789-3.789a1.12,1.12,0,0,1,.081-1.532,1.208,1.208,0,0,1,1.451,0L34,43.434a5.523,5.523,0,0,1,1.532,2.66h0l-3.386,3.386a2.681,2.681,0,0,0,3.789,3.789l2.1-2.1a3.579,3.579,0,0,0,.645.887S28.521,62.216,28.521,62.3A25.2,25.2,0,0,1,19.977,57.54Zm37.241-2.983L39.565,72.211a1.083,1.083,0,0,1-1.532-1.532l10-10A.8.8,0,1,0,46.9,59.556h0L35.776,70.68a1.083,1.083,0,0,1-1.532-1.532h0l11.2-11.124A.8.8,0,1,0,44.4,56.815L31.584,69.632A1.083,1.083,0,1,1,30.053,68.1L42.789,55.364a.779.779,0,0,0-.081-1.129.847.847,0,0,0-1.048,0L31.1,64.715a1.121,1.121,0,0,1-1.532,0h0a1.121,1.121,0,0,1,0-1.532L40.693,52.059l-.564-.484a5.389,5.389,0,0,1-1.29-2.015l-.484-1.209L34.567,52.14a1.051,1.051,0,0,1-1.532-.081,1.022,1.022,0,0,1,0-1.451L43.353,40.29a5.765,5.765,0,0,1,2.66-1.451L49.4,42.225a2.679,2.679,0,0,0,3.789-3.789h0l-2.1-2.1a3.579,3.579,0,0,0,.887-.645L62.135,45.852A25.881,25.881,0,0,1,57.218,54.558ZM72.211,36.1a1.121,1.121,0,0,1-1.532,0l-10-10a.8.8,0,0,0-1.129,1.129h0l11.2,11.124a1.083,1.083,0,1,1-1.532,1.532l-11.2-11.2a.779.779,0,0,0-1.129,0h0a.779.779,0,0,0,0,1.129L69.632,42.547A1.083,1.083,0,1,1,68.1,44.079h0L55.283,31.423a.779.779,0,0,0-1.129,0h0a.779.779,0,0,0,0,1.129l10.56,10.56a1.083,1.083,0,1,1-1.532,1.532L52.059,33.519l-.564.564a5.389,5.389,0,0,1-2.015,1.29l-1.209.4,3.789,3.789A1.083,1.083,0,0,1,50.527,41.1L40.29,30.778a5.394,5.394,0,0,1-1.451-2.66h0l3.386-3.386a2.679,2.679,0,0,0-3.789-3.789l-2.1,2.1a3.579,3.579,0,0,0-.645-.887L45.852,11.916a26.3,26.3,0,0,1,8.706,5.078L72.211,34.647A1.022,1.022,0,0,1,72.211,36.1Z" transform="translate(607 -74)" fill="#c79e61"/></g></svg>