<svg xmlns="http://www.w3.org/2000/svg" xmlns:xlink="http://www.w3.org/1999/xlink" width="74.202" height="74.201" viewBox="0 0 74.202 74.201"><defs><clipPath id="a"><rect width="74.202" height="74.201" fill="#c79e61"/></clipPath></defs><g transform="translate(0 0)"><g transform="translate(0 0)" clip-path="url(#a)"><path d="M37.1,74.2a1.274,1.274,0,0,1-1.274-1.273V66.845l-.785-.054A29.857,29.857,0,0,1,7.413,39.16l-.054-.785H1.275a1.273,1.273,0,1,1,0-2.547H7.359l.054-.785A29.853,29.853,0,0,1,35.041,7.413l.785-.054V1.275a1.274,1.274,0,1,1,2.548,0V7.359l.785.054a29.855,29.855,0,0,1,27.633,27.63l.054.785h6.083a1.274,1.274,0,1,1,0,2.548H66.845l-.054.785A29.858,29.858,0,0,1,39.158,66.791l-.785.054v6.083A1.276,1.276,0,0,1,37.1,74.2M9.977,39.284a27.415,27.415,0,0,0,24.94,24.945l.909.072V51.655l-.727-.1A14.634,14.634,0,0,1,22.646,39.1l-.1-.727H9.9ZM51.554,39.1A14.631,14.631,0,0,1,39.1,51.555l-.727.1V64.3l.908-.072A27.418,27.418,0,0,0,64.229,39.284l.072-.908H51.653Zm-26.293.274a12.151,12.151,0,0,0,9.564,9.567l1,.192v-3.3a1.274,1.274,0,1,1,2.548,0v3.3l1-.191a12.144,12.144,0,0,0,9.566-9.567l.191-1h-3.3a1.274,1.274,0,0,1,0-2.548h3.3l-.191-1a12.139,12.139,0,0,0-9.566-9.564l-1-.191v3.3a1.274,1.274,0,0,1-2.548,0v-3.3l-1,.192a12.144,12.144,0,0,0-9.564,9.563l-.192,1h3.3a1.274,1.274,0,0,1,0,2.548h-3.3ZM38.374,22.55l.727.1A14.628,14.628,0,0,1,51.555,35.1l.1.727H64.3l-.072-.909A27.424,27.424,0,0,0,39.283,9.974L38.374,9.9ZM34.917,9.974A27.419,27.419,0,0,0,9.977,34.919l-.072.909H22.546l.1-.727A14.636,14.636,0,0,1,35.1,22.65l.727-.1V9.9Z" transform="translate(0 0)" fill="#c79e61"/></g></g></svg>