<svg xmlns="http://www.w3.org/2000/svg" xmlns:xlink="http://www.w3.org/1999/xlink" width="58.688" height="74.201" viewBox="0 0 58.688 74.201"><defs><clipPath id="a"><rect width="58.688" height="74.201" fill="#c79e61"/></clipPath></defs><g clip-path="url(#a)"><path d="M98.357,78.153c0-.082,0-.163,0-.245s0-.184,0-.277a20.76,20.76,0,1,0-41.519,0c0,.183,0,.366.005.539C57,85.7,60.22,89.988,63.336,94.13c2.949,3.921,5.735,7.625,5.736,13.975V116.8a.906.906,0,0,0,.906.906h.735c.535,2.7,3.419,4.775,6.888,4.775s6.358-2.072,6.893-4.775h.735a.906.906,0,0,0,.906-.906v-8.689c0-6.351,2.786-10.056,5.736-13.977,3.116-4.143,6.338-8.426,6.486-15.96,0-.006,0-.012,0-.018M84.323,111.543H70.885v-2.528H84.323Zm0,4.348H70.885v-2.536H84.323ZM77.6,120.666c-2.431,0-4.476-1.265-5.022-2.963H82.628c-.547,1.7-2.593,2.963-5.027,2.963M96.548,77.871c0,.091,0,.182,0,.273-.138,6.942-3.045,10.806-6.122,14.9-2.866,3.811-5.826,7.745-6.082,14.16H70.867c-.256-6.416-3.216-10.35-6.082-14.161-3.078-4.092-5.986-7.958-6.123-14.915,0-.164,0-.329,0-.494a18.947,18.947,0,1,1,37.894,0c0,.08,0,.16,0,.24" transform="translate(-48.26 -48.277)" fill="#c79e61"/><path d="M189.226,6.936a.906.906,0,0,0,.906-.906V.906a.906.906,0,0,0-1.812,0V6.029a.906.906,0,0,0,.906.906" transform="translate(-159.878)" fill="#c79e61"/><path d="M96.837,31.036a.906.906,0,1,0,1.569-.907l-2.562-4.435a.906.906,0,0,0-1.569.907Z" transform="translate(-79.933 -21.429)" fill="#c79e61"/><path d="M25.681,95.849l4.433,2.562a.906.906,0,1,0,.907-1.569L26.588,94.28a.906.906,0,1,0-.907,1.569" transform="translate(-21.418 -79.937)" fill="#c79e61"/><path d="M6.933,189.265a.906.906,0,0,0-.906-.906H.906a.906.906,0,1,0,0,1.812H6.027a.906.906,0,0,0,.906-.906" transform="translate(0 -159.911)" fill="#c79e61"/><path d="M30.114,265.721l-4.433,2.563a.906.906,0,1,0,.907,1.569l4.433-2.563a.906.906,0,1,0-.907-1.569" transform="translate(-21.418 -225.486)" fill="#c79e61"/><path d="M265.975,31.367a.906.906,0,0,0,1.237-.333l2.553-4.435a.906.906,0,0,0-1.571-.9l-2.553,4.435a.906.906,0,0,0,.333,1.238" transform="translate(-225.419 -21.428)" fill="#c79e61"/><path d="M322.909,98.575a.9.9,0,0,0,.453-.122l4.433-2.563a.906.906,0,1,0-.907-1.569l-4.433,2.563a.906.906,0,0,0,.454,1.691" transform="translate(-273.37 -79.972)" fill="#c79e61"/><path d="M348.7,188.407h-5.121a.906.906,0,1,0,0,1.812H348.7a.906.906,0,1,0,0-1.812" transform="translate(-290.923 -159.952)" fill="#c79e61"/><path d="M327.747,268.283l-4.433-2.563a.906.906,0,1,0-.907,1.569l4.433,2.563a.906.906,0,0,0,.907-1.569" transform="translate(-273.329 -225.485)" fill="#c79e61"/><path d="M123.38,130.432a4.359,4.359,0,0,1-3.533-1.821l-.364-.508-.364.508a4.359,4.359,0,0,1-3.533,1.821,4.306,4.306,0,0,1-2.613-.874,4.391,4.391,0,0,1-1.309-1.6l-.122-.254h-.3a5.518,5.518,0,0,1-5.511-5.511,5.452,5.452,0,0,1,1.077-3.275l.214-.289-.236-.272a4.346,4.346,0,0,1,.491-6.164l.2-.171-.053-.261a4.348,4.348,0,0,1,3.791-5.183l.262-.028.1-.242a4.342,4.342,0,0,1,7.534-.827l.364.508.364-.508a4.342,4.342,0,0,1,7.534.827l.1.242.262.028a4.347,4.347,0,0,1,3.791,5.183l-.053.261.2.171a4.346,4.346,0,0,1,.491,6.164l-.236.272.214.289a5.515,5.515,0,0,1-4.437,8.786h-.3l-.122.255a4.388,4.388,0,0,1-1.309,1.6,4.306,4.306,0,0,1-2.613.874m-.114-25.908a3.453,3.453,0,0,0-3.449,3.449v18.085a3.449,3.449,0,0,0,6.68,1.208c.017-.047.034-.093.049-.14l0-.006a3.448,3.448,0,0,0-.621-3.258.448.448,0,1,1,.69-.57,4.352,4.352,0,0,1,.994,2.766c0,.072,0,.145-.006.224l-.027.524.522-.055a4.614,4.614,0,0,0,2.814-7.81l-.38-.39-.019.027a4.615,4.615,0,0,0-2.415-1.007l-.521-.056.027.523a4.333,4.333,0,0,1-.211,1.573.448.448,0,0,1-.851-.278,3.453,3.453,0,0,0-2.207-4.351.448.448,0,1,1,.278-.851,4.419,4.419,0,0,1,.539.218l.435.209.176-.45a2.782,2.782,0,0,0-.816-3.159.448.448,0,0,1,.286-.792.443.443,0,0,1,.285.1,3.683,3.683,0,0,1,.9,4.568l-.149.278.212.234a4.377,4.377,0,0,1,.658.956c.01.019.019.039.028.059l.019.04.124.26.288-.005h.021a5.461,5.461,0,0,1,3.24,1.064l.346.254.268-.336a3.448,3.448,0,0,0-.878-5.075.45.45,0,0,1-.185-.53,3.451,3.451,0,0,0-3.249-4.61l-.117,0h-.015a.447.447,0,0,1-.431-.333,3.451,3.451,0,0,0-3.334-2.564M112.2,127.163a3.449,3.449,0,0,0,6.717-1.1V107.973a3.45,3.45,0,0,0-6.784-.885.448.448,0,0,1-.429.333h-.031l-.1,0a3.45,3.45,0,0,0-3.249,4.61.45.45,0,0,1-.185.53,3.448,3.448,0,0,0-.878,5.075l.268.336.346-.254a5.461,5.461,0,0,1,3.24-1.064h.021l.288.005.124-.26.018-.039c.009-.02.019-.04.029-.06a4.374,4.374,0,0,1,.658-.956l.212-.234-.149-.278a3.683,3.683,0,0,1,.9-4.568.448.448,0,0,1,.63.059.448.448,0,0,1-.059.63,2.781,2.781,0,0,0-.816,3.159l.176.45.435-.209a4.434,4.434,0,0,1,.539-.217.448.448,0,1,1,.278.851,3.453,3.453,0,0,0-2.207,4.351.448.448,0,1,1-.851.278,4.337,4.337,0,0,1-.21-1.573l.027-.523-.521.055a4.6,4.6,0,0,0-2.595,1.16l-.018-.02-.336.373a4.614,4.614,0,0,0,2.949,7.666l.522.055-.027-.524c0-.077-.006-.152-.006-.224a4.352,4.352,0,0,1,.994-2.766.448.448,0,1,1,.69.57,3.45,3.45,0,0,0-.75,2.71H112Z" transform="translate(-89.763 -88.002)" fill="#c79e61"/></g></svg>