<?xml version="1.0" encoding="utf-8"?>
<!-- Generator: Adobe Illustrator 26.0.1, SVG Export Plug-In . SVG Version: 6.00 Build 0)  -->
<svg version="1.1" id="Layer_1" xmlns="http://www.w3.org/2000/svg" xmlns:xlink="http://www.w3.org/1999/xlink" x="0px" y="0px"
	 viewBox="0 0 34 34" style="enable-background:new 0 0 34 34;" xml:space="preserve">
<style type="text/css">
	.st0{fill:#C79E61;}
	.st1{fill:none;}
</style>
<path class="st0" d="M9.8,24.6h2.8V14.1H9.8V24.6z M11.2,9.4c-0.9,0-1.7,0.8-1.7,1.7c0,0.9,0.8,1.7,1.7,1.7s1.7-0.8,1.7-1.7
	C13,10.2,12.2,9.5,11.2,9.4C11.3,9.4,11.3,9.4,11.2,9.4z M17.5,15.7v-1.6h-2.8v10.5h2.8v-5.4c0-3,3.9-3.2,3.9,0v5.4h2.8v-6.4
	C24.2,13.1,18.8,13.2,17.5,15.7z"/>
<g>
	<circle class="st1" cx="16.9" cy="17" r="17"/>
	<path class="st0" d="M16.9,34c-9.4,0-17-7.6-17-17s7.6-17,17-17s17,7.6,17,17S26.3,34,16.9,34z M16.9,1c-8.8,0-16,7.2-16,16
		s7.2,16,16,16s16-7.2,16-16S25.7,1,16.9,1z"/>
</g>
</svg>
