<svg id="Group_935" data-name="Group 935" xmlns="http://www.w3.org/2000/svg" xmlns:xlink="http://www.w3.org/1999/xlink" width="162.752" height="62" viewBox="0 0 162.752 62">
  <defs>
    <clipPath id="clip-path">
      <rect id="Rectangle_2685" data-name="Rectangle 2685" width="162.752" height="62" fill="none"/>
    </clipPath>
  </defs>
  <rect id="Rectangle_2684" data-name="Rectangle 2684" width="58.64" height="58.64" transform="translate(1.68 1.68)" fill="#2a3479"/>
  <path id="Path_67762" data-name="Path 67762" d="M3.36,3.361H58.64V58.64H3.36ZM0,62H62V0H0Z" fill="#fff"/>
  <path id="Path_67763" data-name="Path 67763" d="M27.4,74.494l.37.174h3.123L50.019,34.019l17.5,37.765H49.509l6.638-10.7-1.375-2.468H41.6v3.232H51.867l-6.635,10.7,1.18,2.12h23.86l1.244-1.949L51.5,29.519l-2.93-.009Z" transform="translate(-19.03 -20.495)" fill="#fff"/>
  <g id="Group_934" data-name="Group 934">
    <g id="Group_933" data-name="Group 933" clip-path="url(#clip-path)">
      <path id="Path_67764" data-name="Path 67764" d="M212.281,57.34l5.6,14.425a2.408,2.408,0,0,0,.779,1.158,1.7,1.7,0,0,0,.8.309v.458c-.305-.031-.681-.049-1.124-.058s-.886-.012-1.329-.012c-.6,0-1.155,0-1.674.012s-.941.027-1.262.058v-.458a2.247,2.247,0,0,0,1.491-.4q.321-.357-.137-1.524L211.16,59.912l.367-.3-3.99,10.365a5.332,5.332,0,0,0-.458,1.937,1.114,1.114,0,0,0,.529,1,3.074,3.074,0,0,0,1.469.321v.458c-.428-.031-.877-.049-1.341-.058s-.9-.012-1.3-.012c-.382,0-.709,0-.975.012s-.516.027-.745.058v-.458a2.319,2.319,0,0,0,.941-.538,3.7,3.7,0,0,0,.874-1.457l5.389-13.9h.183c.052,0,.11,0,.174,0m2.8,9.748v.458h-6.834l.229-.458Z" transform="translate(-142.179 -39.823)" fill="#fff"/>
      <path id="Path_67765" data-name="Path 67765" d="M271.062,57.7v.458l-9.153,15.247h4.5a5.584,5.584,0,0,0,1.754-.229,2.318,2.318,0,0,0,1.078-.721,3.351,3.351,0,0,0,.608-1.32,13.968,13.968,0,0,0,.321-2.019h.529q-.069.71-.067,1.879c0,.29.012.709.034,1.249s.064,1.106.125,1.686q-1.26-.046-2.856-.058c-1.063-.006-2.013-.012-2.853-.012q-1.352,0-2.856.012t-2.811.058v-.458l9.22-15.247H264.16a4.636,4.636,0,0,0-2.178.412,2.364,2.364,0,0,0-1.091,1.341,10.956,10.956,0,0,0-.492,2.533h-.529c.031-.244.049-.525.058-.846s.012-.666.012-1.033c0-.29-.012-.709-.034-1.249s-.064-1.1-.125-1.686q1.283.046,2.866.058c1.054.006,2,.012,2.844.012.874,0,1.809,0,2.811-.012s1.918-.021,2.759-.055" transform="translate(-180.162 -40.073)" fill="#fff"/>
      <path id="Path_67766" data-name="Path 67766" d="M311.671,57.34l5.6,14.425a2.407,2.407,0,0,0,.779,1.158,1.7,1.7,0,0,0,.8.309v.458c-.305-.031-.678-.049-1.124-.058s-.886-.012-1.329-.012c-.6,0-1.155,0-1.674.012s-.941.027-1.262.058v-.458a2.247,2.247,0,0,0,1.491-.4q.321-.357-.137-1.524L310.55,59.912l.367-.3-3.99,10.365a5.332,5.332,0,0,0-.458,1.937,1.114,1.114,0,0,0,.529,1,3.074,3.074,0,0,0,1.469.321v.458c-.428-.031-.877-.049-1.341-.058s-.9-.012-1.3-.012c-.382,0-.709,0-.975.012s-.516.027-.745.058v-.458a2.318,2.318,0,0,0,.941-.538,3.7,3.7,0,0,0,.874-1.457l5.38-13.9h.367Zm2.8,9.748v.458h-6.834l.229-.458Z" transform="translate(-211.206 -39.823)" fill="#fff"/>
      <path id="Path_67767" data-name="Path 67767" d="M357.31,57.71c.321.015.742.031,1.262.046s1.033.021,1.537.021c.718,0,1.405-.009,2.065-.021s1.124-.024,1.4-.024a6.375,6.375,0,0,1,4.152,1.146,3.569,3.569,0,0,1,1.378,2.844,4.415,4.415,0,0,1-.275,1.466,3.969,3.969,0,0,1-.953,1.469,5.139,5.139,0,0,1-1.845,1.136,8.337,8.337,0,0,1-2.957.446h-2.2v-.458h1.973a4.867,4.867,0,0,0,2.487-.516,2.607,2.607,0,0,0,1.17-1.375,5.6,5.6,0,0,0,.312-1.915,4.173,4.173,0,0,0-.861-2.811,3.726,3.726,0,0,0-2.948-1,1.789,1.789,0,0,0-1.378.391,2.68,2.68,0,0,0-.321,1.582V71.515a4.17,4.17,0,0,0,.137,1.237.834.834,0,0,0,.538.55,4.58,4.58,0,0,0,1.182.183v.458c-.351-.031-.791-.049-1.32-.058s-1.06-.012-1.595-.012c-.6,0-1.155,0-1.674.012s-.941.027-1.262.058v-.458a4.743,4.743,0,0,0,1.182-.183.821.821,0,0,0,.538-.55,4.184,4.184,0,0,0,.137-1.237V60.142a4.189,4.189,0,0,0-.137-1.253.867.867,0,0,0-.538-.55,3.883,3.883,0,0,0-1.182-.171Zm3.648,8.141c.828.031,1.476.064,1.949.1s.862.073,1.158.1.583.07.861.116a3.987,3.987,0,0,1,2.212.929,4.278,4.278,0,0,1,1,2.1l.574,2.34a6.177,6.177,0,0,0,.47,1.457.747.747,0,0,0,.745.425,1.039,1.039,0,0,0,.654-.251,4.165,4.165,0,0,0,.562-.62l.345.254a4.313,4.313,0,0,1-1,1.088,2.425,2.425,0,0,1-1.457.379,2.346,2.346,0,0,1-1.491-.5,3.4,3.4,0,0,1-.962-1.973l-.5-2.294a12.6,12.6,0,0,0-.47-1.7,2.737,2.737,0,0,0-.733-1.136,2.05,2.05,0,0,0-1.387-.415h-2.478Z" transform="translate(-248.154 -40.08)" fill="#fff"/>
      <path id="Path_67768" data-name="Path 67768" d="M415.56,57.71v.458a3.884,3.884,0,0,0-1.182.171.84.84,0,0,0-.538.55,4.175,4.175,0,0,0-.137,1.253V71.515a4.169,4.169,0,0,0,.137,1.237.834.834,0,0,0,.538.55,4.58,4.58,0,0,0,1.182.183v.458c-.351-.031-.791-.049-1.32-.058s-1.06-.012-1.595-.012c-.6,0-1.155,0-1.674.012s-.941.027-1.262.058v-.458a4.743,4.743,0,0,0,1.182-.183.822.822,0,0,0,.538-.55,4.184,4.184,0,0,0,.137-1.237V60.142a4.19,4.19,0,0,0-.137-1.253.867.867,0,0,0-.538-.55,3.883,3.883,0,0,0-1.182-.171V57.71c.321.015.742.031,1.262.046s1.078.021,1.674.021c.535,0,1.066-.009,1.595-.021s.965-.027,1.32-.046" transform="translate(-284.546 -40.08)" fill="#fff"/>
      <path id="Path_67769" data-name="Path 67769" d="M442.821,57.34l5.6,14.425a2.407,2.407,0,0,0,.779,1.158,1.7,1.7,0,0,0,.8.309v.458c-.306-.031-.681-.049-1.124-.058s-.886-.012-1.329-.012c-.6,0-1.155,0-1.674.012s-.941.027-1.262.058v-.458a2.247,2.247,0,0,0,1.491-.4q.321-.357-.137-1.524L441.7,59.912l.367-.3-3.99,10.365a5.332,5.332,0,0,0-.458,1.937,1.114,1.114,0,0,0,.529,1,3.074,3.074,0,0,0,1.469.321v.458c-.428-.031-.877-.049-1.341-.058s-.9-.012-1.3-.012c-.382,0-.709,0-.975.012s-.516.027-.745.058v-.458a2.318,2.318,0,0,0,.941-.538,3.7,3.7,0,0,0,.874-1.457l5.389-13.9h.183c.052,0,.11,0,.174,0m2.8,9.748v.458h-6.834l.229-.458Z" transform="translate(-302.291 -39.823)" fill="#fff"/>
      <path id="Path_67770" data-name="Path 67770" d="M495.95,56.89a4.441,4.441,0,0,1,1.741.266,6.56,6.56,0,0,1,1.054.583c.183.107.333.189.449.241a.759.759,0,0,0,.333.079c.244,0,.412-.336.5-1.011h.529c-.015.26-.034.571-.058.929s-.037.834-.046,1.424-.012,1.363-.012,2.328h-.529a6.56,6.56,0,0,0-.483-2.111,4.048,4.048,0,0,0-1.2-1.65,3.2,3.2,0,0,0-2.077-.642,2.841,2.841,0,0,0-2.007.733,2.5,2.5,0,0,0-.791,1.925,2.782,2.782,0,0,0,.529,1.732,5.376,5.376,0,0,0,1.408,1.262q.884.564,1.915,1.2a23.619,23.619,0,0,1,2.123,1.457,6.021,6.021,0,0,1,1.466,1.595,3.918,3.918,0,0,1,.541,2.108,4.178,4.178,0,0,1-.666,2.429,4.1,4.1,0,0,1-1.766,1.445,5.949,5.949,0,0,1-2.432.483,5.47,5.47,0,0,1-1.925-.275,7.706,7.706,0,0,1-1.216-.574,1.657,1.657,0,0,0-.779-.321c-.244,0-.412.336-.5,1.011h-.529c.031-.324.049-.7.058-1.136s.015-1.005.024-1.708.012-1.592.012-2.661h.529a9.448,9.448,0,0,0,.516,2.569,4.242,4.242,0,0,0,1.307,1.915,3.6,3.6,0,0,0,2.352.724,3.265,3.265,0,0,0,2.053-.724,2.772,2.772,0,0,0,.929-2.328,3.036,3.036,0,0,0-.987-2.319,15.637,15.637,0,0,0-2.591-1.879q-1.077-.664-2.019-1.353a5.709,5.709,0,0,1-1.5-1.595,4.1,4.1,0,0,1-.562-2.19,3.846,3.846,0,0,1,.608-2.236,3.641,3.641,0,0,1,1.595-1.308,5.355,5.355,0,0,1,2.108-.422" transform="translate(-341.364 -39.51)" fill="#fff"/>
      <path id="Path_67771" data-name="Path 67771" d="M251.358,132.93a5.453,5.453,0,0,1,2.267.406,7.794,7.794,0,0,1,1.576.95c.278.208.492.232.635.073a2.193,2.193,0,0,0,.3-1.139h.48q-.041.774-.064,1.879c-.015.739-.021,1.711-.021,2.924h-.48c-.1-.6-.189-1.075-.272-1.43a4.5,4.5,0,0,0-.3-.907,4.055,4.055,0,0,0-.47-.752,3.725,3.725,0,0,0-1.628-1.243,5.613,5.613,0,0,0-2.068-.385,3.454,3.454,0,0,0-1.848.51,4.444,4.444,0,0,0-1.421,1.472,7.838,7.838,0,0,0-.92,2.319,13.111,13.111,0,0,0-.324,3.049,12.279,12.279,0,0,0,.354,3.1,7.133,7.133,0,0,0,.993,2.267,4.4,4.4,0,0,0,1.5,1.39,3.878,3.878,0,0,0,1.87.47,5.676,5.676,0,0,0,1.961-.376,3.285,3.285,0,0,0,1.607-1.21,3.58,3.58,0,0,0,.635-1.317,16.177,16.177,0,0,0,.324-1.983h.48c0,1.268.006,2.285.021,3.058s.034,1.424.064,1.952h-.48a2.335,2.335,0,0,0-.281-1.127c-.131-.153-.351-.131-.657.061a10.918,10.918,0,0,1-1.64.95,5.243,5.243,0,0,1-2.224.406,6.613,6.613,0,0,1-3.477-.9,6,6,0,0,1-2.319-2.588,10.342,10.342,0,0,1,.031-8.166,6.7,6.7,0,0,1,2.349-2.734,6.147,6.147,0,0,1,3.443-.984" transform="translate(-169.953 -92.321)" fill="#fff"/>
      <path id="Path_67772" data-name="Path 67772" d="M297.962,133.526l5.1,13.133a2.2,2.2,0,0,0,.709,1.054,1.516,1.516,0,0,0,.73.281v.419c-.278-.027-.62-.046-1.023-.052s-.807-.012-1.21-.012c-.544,0-1.051,0-1.524.012s-.855.024-1.149.052v-.419a2.026,2.026,0,0,0,1.356-.367c.2-.217.153-.678-.125-1.39l-3.883-10.378.333-.272-3.632,9.437a4.864,4.864,0,0,0-.419,1.766,1.007,1.007,0,0,0,.48.907,2.816,2.816,0,0,0,1.335.293v.419c-.391-.027-.8-.046-1.222-.052s-.819-.012-1.179-.012-.645,0-.886.012a6.386,6.386,0,0,0-.678.052v-.419a2.069,2.069,0,0,0,.855-.492,3.338,3.338,0,0,0,.794-1.326l4.906-12.654h.168a1.575,1.575,0,0,0,.168.006m2.548,8.875v.419h-6.223l.208-.419Z" transform="translate(-202.15 -92.73)" fill="#fff"/>
      <path id="Path_67773" data-name="Path 67773" d="M339.54,133.89c.293.015.675.027,1.149.043s.941.021,1.4.021q.981,0,1.879-.021c.6-.012,1.023-.021,1.274-.021a5.425,5.425,0,0,1,3.779,1.149,3.845,3.845,0,0,1,1.253,2.966,5.389,5.389,0,0,1-.251,1.576,4.1,4.1,0,0,1-.868,1.524,4.471,4.471,0,0,1-1.68,1.139,7.1,7.1,0,0,1-2.694.437h-2v-.419h1.8a3.855,3.855,0,0,0,2.267-.565,2.8,2.8,0,0,0,1.066-1.482,6.674,6.674,0,0,0,.281-1.983,4.706,4.706,0,0,0-.782-2.966,3.248,3.248,0,0,0-2.682-.981,1.623,1.623,0,0,0-1.253.354,2.438,2.438,0,0,0-.293,1.442v10.356a3.1,3.1,0,0,0,.156,1.127.859.859,0,0,0,.617.5,6.626,6.626,0,0,0,1.335.168v.419c-.364-.027-.822-.046-1.378-.052s-1.121-.012-1.692-.012c-.544,0-1.051,0-1.524.012s-.855.024-1.149.052v-.419a4.181,4.181,0,0,0,1.075-.168.754.754,0,0,0,.492-.5,3.834,3.834,0,0,0,.125-1.127V136.1a3.843,3.843,0,0,0-.125-1.139.78.78,0,0,0-.492-.5,3.475,3.475,0,0,0-1.075-.156Z" transform="translate(-235.813 -92.987)" fill="#fff"/>
      <path id="Path_67774" data-name="Path 67774" d="M388.265,133.89v.419a3.671,3.671,0,0,0-1.075.156.787.787,0,0,0-.492.5,3.829,3.829,0,0,0-.125,1.139v10.356a3.834,3.834,0,0,0,.125,1.127.748.748,0,0,0,.492.5,4.32,4.32,0,0,0,1.075.168v.419c-.321-.027-.721-.046-1.2-.052s-.965-.012-1.451-.012c-.544,0-1.051,0-1.524.012s-.855.024-1.149.052v-.419a4.181,4.181,0,0,0,1.075-.168.754.754,0,0,0,.492-.5,3.835,3.835,0,0,0,.125-1.127V136.1a3.844,3.844,0,0,0-.125-1.139.78.78,0,0,0-.492-.5,3.474,3.474,0,0,0-1.075-.156v-.419c.293.015.675.027,1.149.043s.981.021,1.524.021c.486,0,.971-.006,1.451-.021s.88-.031,1.2-.043" transform="translate(-265.954 -92.987)" fill="#fff"/>
      <path id="Path_67775" data-name="Path 67775" d="M420.4,133.89c-.055.529-.095,1.042-.116,1.534s-.031.874-.031,1.139c0,.333.006.648.021.941s.028.55.043.773h-.48a12.932,12.932,0,0,0-.4-2.306,2.025,2.025,0,0,0-.877-1.222,3.9,3.9,0,0,0-1.943-.376h-1.127v11.881a3.8,3.8,0,0,0,.156,1.253.911.911,0,0,0,.617.565,5.634,5.634,0,0,0,1.335.189v.419c-.364-.027-.822-.046-1.378-.052s-1.121-.012-1.692-.012c-.626,0-1.216,0-1.766.012s-.993.024-1.326.052v-.419a5.479,5.479,0,0,0,1.335-.189.917.917,0,0,0,.617-.565,3.8,3.8,0,0,0,.156-1.253V134.373h-1.127a3.889,3.889,0,0,0-1.931.376,1.992,1.992,0,0,0-.886,1.222,13.036,13.036,0,0,0-.4,2.306h-.48a7.648,7.648,0,0,0,.052-.773c.006-.293.012-.6.012-.941,0-.266-.012-.645-.031-1.139s-.058-1.005-.116-1.534c.583.015,1.222.027,1.909.043s1.381.021,2.077.021h3.791c.69,0,1.381-.006,2.077-.021l1.9-.043" transform="translate(-283.803 -92.987)" fill="#fff"/>
      <path id="Path_67776" data-name="Path 67776" d="M455.712,133.526l5.1,13.133a2.2,2.2,0,0,0,.709,1.054,1.516,1.516,0,0,0,.73.281v.419c-.278-.027-.62-.046-1.023-.052s-.806-.012-1.21-.012c-.544,0-1.051,0-1.524.012s-.855.024-1.149.052v-.419a2.026,2.026,0,0,0,1.356-.367c.2-.217.153-.678-.125-1.39l-3.883-10.378.333-.272-3.632,9.437a4.864,4.864,0,0,0-.419,1.766,1.014,1.014,0,0,0,.48.907,2.816,2.816,0,0,0,1.335.293v.419c-.391-.027-.8-.046-1.222-.052s-.819-.012-1.179-.012-.645,0-.886.012a6.386,6.386,0,0,0-.678.052v-.419a2.088,2.088,0,0,0,.855-.492,3.338,3.338,0,0,0,.794-1.326l4.906-12.654h.168a1.546,1.546,0,0,0,.168.006m2.548,8.875v.419h-6.223l.208-.419Z" transform="translate(-311.708 -92.73)" fill="#fff"/>
      <path id="Path_67777" data-name="Path 67777" d="M502.6,133.883v.419a3.671,3.671,0,0,0-1.075.156.787.787,0,0,0-.492.5,3.829,3.829,0,0,0-.125,1.139v10.356a3.834,3.834,0,0,0,.125,1.127.723.723,0,0,0,.492.492,3.83,3.83,0,0,0,1.075.113h1.524a4.213,4.213,0,0,0,1.995-.376,2.156,2.156,0,0,0,.981-1.231,10.216,10.216,0,0,0,.449-2.3h.48c-.043.431-.061,1-.061,1.711,0,.266.012.645.031,1.139s.058,1.005.113,1.534q-1.063-.041-2.4-.052c-.892-.006-1.683-.012-2.38-.012h-1.659q-1.036,0-2.2.012t-2.193.052v-.419a4.181,4.181,0,0,0,1.075-.168.754.754,0,0,0,.492-.5,3.834,3.834,0,0,0,.125-1.127V136.095a3.843,3.843,0,0,0-.125-1.139.78.78,0,0,0-.492-.5,3.475,3.475,0,0,0-1.075-.156v-.419c.293.015.675.027,1.149.043s.981.021,1.524.021c.486,0,.971-.006,1.451-.021s.883-.027,1.2-.04" transform="translate(-345.364 -92.98)" fill="#fff"/>
    </g>
  </g>
</svg>
