<svg id="Group_932" data-name="Group 932" xmlns="http://www.w3.org/2000/svg" xmlns:xlink="http://www.w3.org/1999/xlink" width="125.342" height="50.392" viewBox="0 0 125.342 50.392">
  <defs>
    <clipPath id="clip-path">
      <rect id="Rectangle_2683" data-name="Rectangle 2683" width="125.342" height="50.392" fill="none"/>
    </clipPath>
  </defs>
  <path id="Path_67747" data-name="Path 67747" d="M9.44,63.209l.378.168H13.05L32.83,23.69l18.1,36.872H32.3l6.861-10.45L37.744,47.7H24.125v3.154H34.741L27.88,61.307l1.219,2.07H53.773l1.286-1.9L34.359,19.3l-3.029-.007Z" transform="translate(-6.964 -14.231)" fill="#fff"/>
  <g id="Group_930" data-name="Group 930">
    <g id="Group_929" data-name="Group 929" clip-path="url(#clip-path)">
      <path id="Path_67748" data-name="Path 67748" d="M180.772,71.44l4.568,11.775a1.965,1.965,0,0,0,.636.945,1.39,1.39,0,0,0,.656.252v.374c-.249-.025-.556-.04-.918-.047s-.723-.01-1.085-.01c-.486,0-.943,0-1.367.01s-.768.022-1.03.047v-.374a1.834,1.834,0,0,0,1.217-.327q.262-.292-.112-1.244l-3.481-9.3.3-.244L176.9,81.756a4.353,4.353,0,0,0-.374,1.581.909.909,0,0,0,.431.815,2.509,2.509,0,0,0,1.2.262v.374c-.349-.025-.716-.04-1.095-.047s-.733-.01-1.057-.01-.579,0-.8.01-.421.022-.608.047v-.374a1.893,1.893,0,0,0,.768-.439,3.018,3.018,0,0,0,.713-1.189l4.4-11.344h.15c.042,0,.092,0,.142,0m2.284,7.957v.374h-5.578l.187-.374Z" transform="translate(-131.061 -53.625)" fill="#fff"/>
      <path id="Path_67749" data-name="Path 67749" d="M238.811,71.8v.374L231.34,84.622h3.671a4.558,4.558,0,0,0,1.431-.187,1.892,1.892,0,0,0,.88-.589,2.735,2.735,0,0,0,.5-1.077,11.4,11.4,0,0,0,.262-1.648h.431q-.056.58-.055,1.534c0,.237.01.579.027,1.02s.052.9.1,1.377q-1.029-.037-2.332-.047c-.868,0-1.643-.01-2.329-.01q-1.1,0-2.332.01t-2.294.047v-.374l7.526-12.446h-3.651a3.785,3.785,0,0,0-1.778.337,1.929,1.929,0,0,0-.89,1.095,8.943,8.943,0,0,0-.4,2.067h-.431c.025-.2.04-.429.047-.691s.01-.544.01-.843c0-.237-.01-.579-.027-1.02s-.052-.9-.1-1.377q1.047.037,2.339.047c.86,0,1.633.01,2.322.01.713,0,1.476,0,2.294-.01s1.569-.017,2.254-.045" transform="translate(-172.12 -53.895)" fill="#fff"/>
      <path id="Path_67750" data-name="Path 67750" d="M280.162,71.44l4.568,11.775a1.965,1.965,0,0,0,.636.945,1.39,1.39,0,0,0,.656.252v.374c-.249-.025-.556-.04-.918-.047s-.723-.01-1.085-.01c-.486,0-.943,0-1.367.01s-.768.022-1.03.047v-.374a1.835,1.835,0,0,0,1.217-.327q.262-.292-.112-1.244l-3.481-9.3.3-.244-3.257,8.461a4.351,4.351,0,0,0-.374,1.581.909.909,0,0,0,.431.815,2.509,2.509,0,0,0,1.2.262v.374c-.349-.025-.716-.04-1.095-.047s-.733-.01-1.057-.01-.579,0-.8.01-.421.022-.608.047v-.374a1.893,1.893,0,0,0,.768-.439,3.018,3.018,0,0,0,.713-1.189l4.4-11.344h.15c.045,0,.092,0,.142,0m2.287,7.957v.374H276.87l.187-.374Z" transform="translate(-205.666 -53.625)" fill="#fff"/>
      <path id="Path_67751" data-name="Path 67751" d="M327.2,71.81c.262.012.606.025,1.03.037s.843.017,1.254.017c.586,0,1.147-.007,1.686-.017s.918-.02,1.142-.02a5.2,5.2,0,0,1,3.389.935,2.913,2.913,0,0,1,1.125,2.322,3.6,3.6,0,0,1-.224,1.2,3.24,3.24,0,0,1-.778,1.2,4.2,4.2,0,0,1-1.506.928,6.806,6.806,0,0,1-2.414.364h-1.8V78.4h1.611a3.973,3.973,0,0,0,2.03-.421,2.128,2.128,0,0,0,.955-1.122,4.57,4.57,0,0,0,.254-1.564,3.407,3.407,0,0,0-.7-2.294,3.041,3.041,0,0,0-2.406-.813,1.46,1.46,0,0,0-1.125.319,2.187,2.187,0,0,0-.262,1.292v9.284a3.4,3.4,0,0,0,.112,1.01.681.681,0,0,0,.439.449,3.719,3.719,0,0,0,.965.15v.374c-.287-.025-.646-.04-1.077-.047s-.865-.01-1.3-.01c-.486,0-.943,0-1.367.01s-.768.022-1.03.047v-.374a3.871,3.871,0,0,0,.965-.15.671.671,0,0,0,.439-.449,3.415,3.415,0,0,0,.112-1.01V73.795a3.419,3.419,0,0,0-.112-1.022.708.708,0,0,0-.439-.449,3.17,3.17,0,0,0-.965-.14Zm2.975,6.646c.676.025,1.2.052,1.591.085s.7.06.945.085.476.057.7.095a3.254,3.254,0,0,1,1.805.758,3.492,3.492,0,0,1,.815,1.713l.469,1.91a5.045,5.045,0,0,0,.384,1.189.61.61,0,0,0,.608.347.848.848,0,0,0,.534-.2,3.4,3.4,0,0,0,.459-.506l.282.207a3.521,3.521,0,0,1-.815.888,1.98,1.98,0,0,1-1.189.309,1.915,1.915,0,0,1-1.217-.411,2.772,2.772,0,0,1-.786-1.611l-.411-1.873a10.284,10.284,0,0,0-.384-1.391,2.234,2.234,0,0,0-.6-.928,1.669,1.669,0,0,0-1.132-.339h-2.022Z" transform="translate(-245.607 -53.903)" fill="#fff"/>
      <path id="Path_67752" data-name="Path 67752" d="M384.365,71.81v.374a3.171,3.171,0,0,0-.965.14.686.686,0,0,0-.439.449,3.409,3.409,0,0,0-.112,1.022v9.284a3.4,3.4,0,0,0,.112,1.01.681.681,0,0,0,.439.449,3.739,3.739,0,0,0,.965.15v.374c-.287-.025-.646-.04-1.077-.047s-.865-.01-1.3-.01c-.486,0-.943,0-1.367.01s-.768.022-1.03.047v-.374a3.871,3.871,0,0,0,.965-.15.67.67,0,0,0,.439-.449,3.415,3.415,0,0,0,.112-1.01V73.795a3.419,3.419,0,0,0-.112-1.022.708.708,0,0,0-.439-.449,3.171,3.171,0,0,0-.965-.14V71.81c.262.012.606.025,1.03.037s.88.017,1.367.017c.436,0,.87-.007,1.3-.017s.79-.022,1.077-.037" transform="translate(-284.933 -53.903)" fill="#fff"/>
      <path id="Path_67753" data-name="Path 67753" d="M411.312,71.44l4.568,11.775a1.965,1.965,0,0,0,.636.945,1.39,1.39,0,0,0,.656.252v.374c-.249-.025-.556-.04-.918-.047s-.723-.01-1.085-.01c-.486,0-.943,0-1.366.01s-.768.022-1.03.047v-.374a1.834,1.834,0,0,0,1.217-.327q.262-.292-.112-1.244l-3.481-9.3.3-.244-3.257,8.461a4.35,4.35,0,0,0-.374,1.581.909.909,0,0,0,.431.815,2.509,2.509,0,0,0,1.2.262v.374c-.349-.025-.716-.04-1.095-.047s-.733-.01-1.057-.01-.579,0-.8.01-.421.022-.608.047v-.374a1.893,1.893,0,0,0,.768-.439,3.018,3.018,0,0,0,.713-1.189l4.4-11.344h.15l.142,0M413.6,79.4v.374h-5.578l.187-.374Z" transform="translate(-304.112 -53.625)" fill="#fff"/>
      <path id="Path_67754" data-name="Path 67754" d="M465.026,70.99a3.625,3.625,0,0,1,1.421.217,5.355,5.355,0,0,1,.86.476c.15.087.272.155.367.2a.619.619,0,0,0,.272.065c.2,0,.337-.274.411-.825h.431c-.012.212-.027.466-.047.758s-.03.681-.037,1.162-.01,1.112-.01,1.9h-.431a5.354,5.354,0,0,0-.394-1.723,3.3,3.3,0,0,0-.983-1.347,2.609,2.609,0,0,0-1.7-.524,2.319,2.319,0,0,0-1.638.6,2.039,2.039,0,0,0-.646,1.571,2.271,2.271,0,0,0,.431,1.414,4.388,4.388,0,0,0,1.15,1.03q.722.46,1.564.982a19.286,19.286,0,0,1,1.733,1.189,4.915,4.915,0,0,1,1.2,1.3,3.2,3.2,0,0,1,.441,1.721,3.41,3.41,0,0,1-.544,1.982,3.344,3.344,0,0,1-1.441,1.179,4.856,4.856,0,0,1-1.985.394,4.464,4.464,0,0,1-1.571-.224,6.289,6.289,0,0,1-.992-.469,1.352,1.352,0,0,0-.636-.262c-.2,0-.337.274-.411.825h-.431c.025-.264.04-.571.047-.928s.012-.82.02-1.394.01-1.3.01-2.172h.431a7.712,7.712,0,0,0,.421,2.1,3.463,3.463,0,0,0,1.067,1.564,2.934,2.934,0,0,0,1.92.591A2.665,2.665,0,0,0,467,83.748a2.262,2.262,0,0,0,.758-1.9,2.478,2.478,0,0,0-.805-1.893,12.764,12.764,0,0,0-2.115-1.534q-.879-.542-1.648-1.1a4.66,4.66,0,0,1-1.227-1.3,3.344,3.344,0,0,1-.459-1.788A3.139,3.139,0,0,1,462,72.4a2.972,2.972,0,0,1,1.3-1.067,4.371,4.371,0,0,1,1.721-.344" transform="translate(-346.35 -53.287)" fill="#fff"/>
      <path id="Path_67755" data-name="Path 67755" d="M220.026,147.03a4.451,4.451,0,0,1,1.85.332,6.362,6.362,0,0,1,1.287.776c.227.17.4.19.519.06a1.79,1.79,0,0,0,.247-.93h.391q-.034.632-.052,1.534c-.012.6-.017,1.4-.017,2.386h-.392c-.08-.489-.155-.878-.222-1.167a3.675,3.675,0,0,0-.247-.741,3.31,3.31,0,0,0-.384-.613,3.04,3.04,0,0,0-1.329-1.015,4.582,4.582,0,0,0-1.688-.314,2.819,2.819,0,0,0-1.509.416,3.627,3.627,0,0,0-1.16,1.2,6.4,6.4,0,0,0-.751,1.893,10.7,10.7,0,0,0-.264,2.489,10.023,10.023,0,0,0,.289,2.531,5.822,5.822,0,0,0,.81,1.85,3.6,3.6,0,0,0,1.227,1.135,3.165,3.165,0,0,0,1.526.384,4.633,4.633,0,0,0,1.6-.307,2.682,2.682,0,0,0,1.312-.987,2.922,2.922,0,0,0,.519-1.075,13.2,13.2,0,0,0,.264-1.618h.392c0,1.035,0,1.865.017,2.5s.027,1.162.052,1.593h-.392a1.906,1.906,0,0,0-.229-.92c-.107-.125-.287-.107-.536.05a8.914,8.914,0,0,1-1.339.776,4.279,4.279,0,0,1-1.815.332,5.4,5.4,0,0,1-2.838-.733,4.9,4.9,0,0,1-1.893-2.112,8.442,8.442,0,0,1,.025-6.666,5.467,5.467,0,0,1,1.918-2.232,5.006,5.006,0,0,1,2.81-.8" transform="translate(-161.086 -110.366)" fill="#fff"/>
      <path id="Path_67756" data-name="Path 67756" d="M266.586,147.625l4.159,10.72a1.8,1.8,0,0,0,.578.86,1.238,1.238,0,0,0,.6.229v.342c-.227-.022-.506-.037-.835-.042s-.658-.01-.988-.01c-.444,0-.858,0-1.244.01s-.7.02-.938.042v-.342a1.654,1.654,0,0,0,1.107-.3c.16-.177.125-.554-.1-1.135l-3.169-8.471.272-.222-2.965,7.7a3.97,3.97,0,0,0-.342,1.441.822.822,0,0,0,.392.741,2.3,2.3,0,0,0,1.09.239v.342c-.319-.022-.651-.037-1-.042s-.668-.01-.963-.01-.526,0-.723.01a5.211,5.211,0,0,0-.554.042v-.342a1.689,1.689,0,0,0,.7-.4,2.724,2.724,0,0,0,.648-1.082l4-10.329h.137a1.26,1.26,0,0,0,.137,0m2.08,7.244v.342h-5.08l.17-.342Z" transform="translate(-195.885 -110.808)" fill="#fff"/>
      <path id="Path_67757" data-name="Path 67757" d="M309.42,147.99c.239.012.551.022.938.035s.768.017,1.142.017q.8,0,1.534-.017c.489-.01.835-.017,1.04-.017a4.428,4.428,0,0,1,3.085.938,3.138,3.138,0,0,1,1.022,2.421,4.4,4.4,0,0,1-.2,1.287,3.344,3.344,0,0,1-.708,1.244,3.65,3.65,0,0,1-1.372.93,5.8,5.8,0,0,1-2.2.357h-1.636v-.342h1.466a3.147,3.147,0,0,0,1.85-.461,2.286,2.286,0,0,0,.87-1.209,5.449,5.449,0,0,0,.229-1.618,3.841,3.841,0,0,0-.638-2.421,2.652,2.652,0,0,0-2.189-.8,1.325,1.325,0,0,0-1.022.289,1.99,1.99,0,0,0-.239,1.177v8.454a2.53,2.53,0,0,0,.127.92.7.7,0,0,0,.5.409,5.408,5.408,0,0,0,1.09.137v.342c-.3-.022-.671-.037-1.125-.042s-.915-.01-1.381-.01c-.444,0-.858,0-1.244.01s-.7.02-.938.042v-.342a3.413,3.413,0,0,0,.878-.137.616.616,0,0,0,.4-.409,3.131,3.131,0,0,0,.1-.92V149.8a3.139,3.139,0,0,0-.1-.93.637.637,0,0,0-.4-.409,2.837,2.837,0,0,0-.878-.127Z" transform="translate(-232.261 -111.086)" fill="#fff"/>
      <path id="Path_67758" data-name="Path 67758" d="M357.167,147.99v.342a3,3,0,0,0-.878.127.642.642,0,0,0-.4.409,3.125,3.125,0,0,0-.1.93v8.454a3.129,3.129,0,0,0,.1.92.611.611,0,0,0,.4.409,3.527,3.527,0,0,0,.878.137v.342c-.262-.022-.589-.037-.98-.042s-.788-.01-1.184-.01c-.444,0-.858,0-1.244.01s-.7.02-.938.042v-.342a3.413,3.413,0,0,0,.878-.137.616.616,0,0,0,.4-.409,3.13,3.13,0,0,0,.1-.92V149.8a3.138,3.138,0,0,0-.1-.93.637.637,0,0,0-.4-.409,2.836,2.836,0,0,0-.878-.127v-.342c.239.012.551.022.938.035s.8.017,1.244.017c.4,0,.793,0,1.184-.017s.718-.025.98-.035" transform="translate(-264.838 -111.086)" fill="#fff"/>
      <path id="Path_67759" data-name="Path 67759" d="M388.123,147.99c-.045.431-.077.85-.095,1.252s-.025.713-.025.93c0,.272,0,.529.017.768s.022.449.035.631h-.392a10.551,10.551,0,0,0-.324-1.883,1.652,1.652,0,0,0-.716-1,3.179,3.179,0,0,0-1.586-.307h-.92v9.7a3.1,3.1,0,0,0,.127,1.022.744.744,0,0,0,.5.461,4.6,4.6,0,0,0,1.09.155v.342c-.3-.022-.671-.037-1.125-.042s-.915-.01-1.382-.01c-.511,0-.992,0-1.441.01s-.81.02-1.082.042v-.342a4.473,4.473,0,0,0,1.09-.155.748.748,0,0,0,.5-.461,3.1,3.1,0,0,0,.127-1.022v-9.7h-.92a3.175,3.175,0,0,0-1.576.307,1.626,1.626,0,0,0-.723,1,10.638,10.638,0,0,0-.324,1.883h-.391a6.254,6.254,0,0,0,.042-.631c.005-.239.01-.494.01-.768,0-.217-.01-.526-.025-.93s-.047-.82-.092-1.252c.476.012,1,.022,1.559.035s1.127.017,1.7.017h3.095c.564,0,1.127,0,1.7-.017l1.549-.035" transform="translate(-284.137 -111.086)" fill="#fff"/>
      <path id="Path_67760" data-name="Path 67760" d="M424.336,147.625l4.159,10.72a1.8,1.8,0,0,0,.579.86,1.237,1.237,0,0,0,.6.229v.342c-.227-.022-.506-.037-.835-.042s-.658-.01-.988-.01c-.444,0-.858,0-1.244.01s-.7.02-.938.042v-.342a1.654,1.654,0,0,0,1.107-.3c.16-.177.125-.554-.1-1.135L423.5,149.53l.272-.222-2.965,7.7a3.97,3.97,0,0,0-.342,1.441.827.827,0,0,0,.392.741,2.3,2.3,0,0,0,1.09.239v.342c-.319-.022-.651-.037-1-.042s-.668-.01-.963-.01-.526,0-.723.01a5.21,5.21,0,0,0-.554.042v-.342a1.7,1.7,0,0,0,.7-.4,2.724,2.724,0,0,0,.648-1.082l4-10.329h.137a1.237,1.237,0,0,0,.137,0m2.08,7.244v.342h-5.08l.17-.342Z" transform="translate(-314.298 -110.808)" fill="#fff"/>
      <path id="Path_67761" data-name="Path 67761" d="M471.517,147.982v.342a3,3,0,0,0-.878.127.642.642,0,0,0-.4.409,3.127,3.127,0,0,0-.1.93v8.454a3.131,3.131,0,0,0,.1.92.59.59,0,0,0,.4.4,3.126,3.126,0,0,0,.878.092h1.244a3.439,3.439,0,0,0,1.628-.307,1.76,1.76,0,0,0,.8-1,8.335,8.335,0,0,0,.367-1.875h.391c-.035.352-.05.818-.05,1.4,0,.217.01.526.025.93s.047.82.092,1.252q-.868-.034-1.96-.042c-.728,0-1.374-.01-1.943-.01h-1.354q-.845,0-1.8.01t-1.79.042v-.342a3.412,3.412,0,0,0,.878-.137.616.616,0,0,0,.4-.409,3.131,3.131,0,0,0,.1-.92v-8.454a3.139,3.139,0,0,0-.1-.93.637.637,0,0,0-.4-.409,2.835,2.835,0,0,0-.878-.127v-.342c.239.012.551.022.938.035s.8.017,1.244.017c.4,0,.793,0,1.184-.017s.718-.022.98-.032" transform="translate(-350.673 -111.079)" fill="#fff"/>
    </g>
  </g>
</svg>
