<?xml version="1.0" encoding="utf-8"?>
<!-- Generator: Adobe Illustrator 26.0.2, SVG Export Plug-In . SVG Version: 6.00 Build 0)  -->
<svg version="1.1" id="Layer_1" xmlns="http://www.w3.org/2000/svg" xmlns:xlink="http://www.w3.org/1999/xlink" x="0px" y="0px"
	 viewBox="0 0 172 180" style="enable-background:new 0 0 172 180;" xml:space="preserve">
<style type="text/css">
	.st0{enable-background:new    ;}
	.st1{fill:#C79E61;}
	.st2{fill:#D1D1D1;}
</style>
<g class="st0">
	<path class="st1" d="M66.4,111.4C66.3,111.4,66.3,111.4,66.4,111.4l-0.1-0.4c-0.7,0.3-1.8,0.5-2.8,0.5c-3.1,0-4.9-2.2-4.9-5.1
		c0-3.2,1.8-5.4,4.9-5.4c0.9,0,1.8,0.2,2.4,0.5v-0.3c0-0.1,0-0.1,0.1-0.1h0.2c0.1,0,0.1,0,0.1,0.1v3.1c0,0.1,0,0.1-0.1,0.1h-0.3
		c-0.1,0-0.1,0-0.1-0.1v-0.2c0-1.5-0.9-2.6-2.3-2.6c-1.9,0-2.5,1.5-2.5,4.8c0,2.7,0.6,4.6,2.6,4.6c1.6,0,2.6-1,2.7-2.7v-0.4
		c0-0.1,0-0.1,0.1-0.1h0.3c0.1,0,0.1,0,0.1,0.1l-0.2,3.4c0,0.1,0,0.1-0.1,0.1h-0.1V111.4z"/>
	<path class="st1" d="M74.9,110.9c0.2,0,0.4-0.2,0.5-0.4c0-0.1,0.1-0.1,0.2-0.1l0.2,0.1c0.1,0,0.1,0.1,0,0.2
		c-0.2,0.5-0.7,0.9-1.5,0.9c-0.9,0-1.6-0.5-1.7-1.4l0,0c-0.5,0.9-1.3,1.4-2.4,1.4c-1.2,0-2.2-0.7-2.2-2s0.8-1.9,2.6-2.4
		c1.9-0.6,1.9-0.7,1.9-1.1v-0.4c0-1.2-0.7-1.6-1.6-1.6c-0.4,0-0.9,0.1-1.2,0.3c0.2,0.3,0.3,0.7,0.3,1c0,0.4-0.2,0.8-0.8,0.8
		c-0.6,0-0.9-0.2-0.9-0.8c0-0.9,1.5-1.9,3.3-1.9c1.6,0,3,0.7,3,2.5v3.9C74.5,110.6,74.6,110.9,74.9,110.9z M72.4,107
		c-0.5,0.2-1,0.3-1.4,0.5c-0.7,0.3-1,0.8-1,1.6c0,0.9,0.3,1.4,1,1.4c0.6,0,1.1-0.4,1.4-1V107z"/>
	<path class="st1" d="M79.3,111.5c-1.3,0-2.3-0.7-2.3-2.3v-5h-1c-0.1,0-0.1,0-0.1-0.1v-0.3c0-0.1,0-0.1,0.1-0.1l1-0.1v-1.5
		c0-0.1,0-0.1,0.1-0.2c0.5-0.2,1.1-0.5,1.5-0.9c0.1-0.1,0.1-0.1,0.2-0.1h0.1c0.1,0,0.1,0,0.1,0.1v2.5h1.7c0.1,0,0.1,0,0.1,0.1v0.4
		c0,0.1,0,0.1-0.1,0.1H79v5.2c0,0.9,0.2,1.3,0.8,1.3c0.4,0,0.7-0.3,0.8-0.8c0-0.1,0.1-0.1,0.2-0.1H81c0.1,0,0.1,0.1,0.1,0.2
		C81,110.9,80.4,111.5,79.3,111.5z"/>
	<path class="st1" d="M88.9,110.9c0.2,0,0.4-0.2,0.5-0.4c0-0.1,0.1-0.1,0.2-0.1l0.2,0.1c0.1,0,0.1,0.1,0,0.2
		c-0.2,0.5-0.7,0.9-1.5,0.9c-0.9,0-1.6-0.5-1.7-1.4l0,0c-0.5,0.9-1.3,1.4-2.4,1.4c-1.2,0-2.2-0.7-2.2-2s0.8-1.9,2.6-2.4
		c1.9-0.6,1.9-0.7,1.9-1.1v-0.4c0-1.2-0.7-1.6-1.6-1.6c-0.4,0-0.9,0.1-1.2,0.3c0.2,0.3,0.3,0.7,0.3,1c0,0.4-0.2,0.8-0.8,0.8
		c-0.6,0-0.9-0.2-0.9-0.8c0-0.9,1.5-1.9,3.3-1.9c1.6,0,3,0.7,3,2.5v3.9C88.4,110.6,88.6,110.9,88.9,110.9z M86.4,107
		c-0.5,0.2-1,0.3-1.4,0.5c-0.7,0.3-1,0.8-1,1.6c0,0.9,0.3,1.4,1,1.4c0.6,0,1.1-0.4,1.4-1V107z"/>
	<path class="st1" d="M90.1,111.3C90,111.3,90,111.3,90.1,111.3l-0.1-0.4c0-0.1,0-0.1,0.1-0.1h0.6c0.4,0,0.4-0.1,0.4-1.2v-7.7
		c0-1.1,0-1.2-0.4-1.2h-0.6c-0.1,0-0.1,0-0.1-0.1v-0.3c0-0.1,0-0.1,0.1-0.1h3c0.1,0,0.1,0.1,0.1,0.2v9.2c0,1.1,0,1.2,0.4,1.2h0.6
		c0.1,0,0.1,0,0.1,0.1v0.3c0,0.1,0,0.1-0.1,0.1L90.1,111.3L90.1,111.3z"/>
	<path class="st1" d="M101.9,104.1c-0.3,0-0.5,0.2-0.7,0.8c-0.1,0.3-0.3,0.8-0.5,1.4l-2.1,6c-0.2,0.5-0.3,0.9-0.3,1.2
		s0.1,0.5,0.5,0.5h0.4c0.1,0,0.1,0,0.1,0.1v0.3c0,0.1,0,0.1-0.1,0.1H96c-0.1,0-0.1,0-0.1-0.1v-0.3c0-0.1,0-0.1,0.1-0.1h0.5
		c0.7,0,1-0.4,1.4-1.6l0.2-0.7c0-0.1,0-0.2,0-0.3l-2.8-5.9c-0.6-1.2-0.6-1.3-1-1.3h-0.1c-0.1,0-0.1,0-0.1-0.1v-0.3
		c0-0.1,0-0.1,0.1-0.1h3.7c0.1,0,0.1,0,0.1,0.1v0.3c0,0.1,0,0.1-0.1,0.1h-0.3c-0.2,0-0.4,0.1-0.4,0.3s0.1,0.5,0.3,1l1.5,3.6l0,0
		l0.9-2.7c0.2-0.5,0.4-1.1,0.4-1.5s-0.2-0.7-0.6-0.7h-0.4c-0.1,0-0.1,0-0.1-0.1v-0.3c0-0.1,0-0.1,0.1-0.1h2.7c0.1,0,0.1,0,0.1,0.1
		v0.3C102.1,104.2,102.1,104.2,101.9,104.1L101.9,104.1z"/>
	<path class="st1" d="M105.1,111.5c-0.8,0-1.5-0.2-2-0.5v0.3c0,0.1,0,0.1-0.1,0.1h-0.2c-0.1,0-0.1,0-0.1-0.1l-0.1-2.5
		c0-0.1,0-0.1,0.1-0.1h0.3c0.1,0,0.1,0,0.1,0.1v0.3c0.1,0.9,0.9,1.9,2.1,1.9c0.9,0,1.5-0.4,1.5-1.1c0-0.8-0.8-1.2-1.8-1.7
		c-1.1-0.5-2.2-1.1-2.2-2.6c0-1.3,1.1-2.3,2.7-2.3c0.6,0,1.3,0.2,1.7,0.5v-0.3c0-0.1,0-0.1,0.1-0.1h0.2c0.1,0,0.1,0,0.1,0.1v2.3
		c0,0.1,0,0.1-0.1,0.1h-0.3c-0.1,0-0.1,0-0.1-0.1v-0.2c0-1.1-0.8-1.8-1.7-1.8c-0.8,0-1.1,0.4-1.1,0.9c0,0.8,0.7,1.1,1.7,1.6
		c1.2,0.6,2.2,1.1,2.2,2.7C108.2,110.6,106.8,111.5,105.1,111.5z"/>
	<path class="st1" d="M112.1,111.5c-1.3,0-2.3-0.7-2.3-2.3v-5h-1c-0.1,0-0.1,0-0.1-0.1v-0.3c0-0.1,0-0.1,0.1-0.1l1-0.1v-1.5
		c0-0.1,0-0.1,0.1-0.2c0.5-0.2,1.1-0.5,1.5-0.9c0.1-0.1,0.1-0.1,0.2-0.1h0.1c0.1,0,0.1,0,0.1,0.1v2.5h1.7c0.1,0,0.1,0,0.1,0.1v0.4
		c0,0.1,0,0.1-0.1,0.1h-1.7v5.2c0,0.9,0.2,1.3,0.8,1.3c0.4,0,0.7-0.3,0.8-0.8c0-0.1,0.1-0.1,0.2-0.1h0.2c0.1,0,0.1,0.1,0.1,0.2
		C113.8,110.9,113.1,111.5,112.1,111.5z"/>
</g>
<g id="Group_741" transform="translate(-16551 -10951.346)">
	<path id="Union_42" class="st1" d="M16614.2,11028.4c0-1.2,1-2.2,2.2-2.2c0.6,0,1.2,0.2,1.6,0.6l4.3-1.3c0.1-1.2,1.2-2.1,2.4-2
		c1,0.1,1.8,0.8,2,1.9l5.5,1.5c0.4-1.2,1.6-1.8,2.8-1.5c0.3,0.1,0.7,0.3,0.9,0.5l13.3-13c-0.4-1.2,0.3-2.4,1.5-2.8
		c1.2-0.4,2.4,0.3,2.8,1.5c0.4,1.2-0.3,2.4-1.4,2.8c-0.2,0.1-0.4,0.1-0.7,0.1c-0.5,0-1-0.2-1.3-0.5l-13.5,13.1c0,0.1,0,0.2,0,0.3
		c0,1.2-1,2.2-2.2,2.2c-1,0-1.8-0.6-2.1-1.5l-5.7-1.6c-0.5,1.1-1.9,1.6-3,1.1c-0.4-0.2-0.7-0.5-1-0.9l-3.9,1.3c0,0.1,0,0.3,0,0.4
		c0,1.2-1,2.2-2.2,2.2C16615.2,11030.6,16614.2,11029.6,16614.2,11028.4L16614.2,11028.4z"/>
	<path id="Line_10534" class="st1" d="M16661.2,11038.9h-49.2v-1.3h49.2V11038.9z"/>
</g>
<g>
	<path class="st2" d="M1.7,69.1c1.1-5.6,2.8-11,5-16.2c2.2-5.1,4.8-10.1,7.9-14.7c3.1-4.6,6.6-8.9,10.5-12.8
		c3.9-3.9,8.2-7.5,12.7-10.6c4.6-3.1,9.5-5.8,14.6-8c5.2-2.2,10.6-3.9,16.1-5C74.4,0.6,80.2,0,86,0v19.3
		c-36.9,0-66.9,30.2-66.9,67.3s30,67.3,66.9,67.3V173c-5.8,0-11.6-0.6-17.3-1.8c-5.5-1.1-10.9-2.8-16.1-5c-5.1-2.2-10-4.8-14.6-8
		c-4.6-3.1-8.8-6.6-12.7-10.6c-3.9-3.9-7.4-8.2-10.5-12.8c-3.1-4.6-5.8-9.6-7.9-14.7c-2.2-5.2-3.9-10.7-5-16.2
		C0.6,98.2,0,92.4,0,86.5C0,80.6,0.6,74.8,1.7,69.1z"/>
	<path class="st1" d="M170.3,69.1c-1.1-5.6-2.8-11-5-16.2c-2.2-5.1-4.8-10.1-7.9-14.7c-3.1-4.6-6.6-8.9-10.5-12.8
		c-3.9-3.9-8.2-7.5-12.7-10.6c-4.6-3.1-9.5-5.8-14.6-8c-5.2-2.2-10.6-3.9-16.1-5C97.6,0.6,91.8,0,86,0v19.3
		c36.9,0,66.9,30.2,66.9,67.3s-30,67.3-66.9,67.3V147l-21,16l21,16v-6c5.8,0,11.6-0.6,17.3-1.8c5.5-1.1,10.9-2.8,16.1-5
		c5.1-2.2,10-4.8,14.6-8c4.6-3.1,8.8-6.6,12.7-10.6c3.9-3.9,7.4-8.2,10.5-12.8c3.1-4.6,5.8-9.6,7.9-14.7c2.2-5.2,3.9-10.7,5-16.2
		c1.2-5.7,1.7-11.6,1.7-17.4C172,80.6,171.4,74.8,170.3,69.1z"/>
</g>
</svg>
