<svg xmlns="http://www.w3.org/2000/svg" width="172" height="180" viewBox="0 0 172 180"><g transform="translate(16612 11010)"><path d="M86.5,86a87.612,87.612,0,0,1-17.433-1.747A86.42,86.42,0,0,1,52.83,79.242a86.647,86.647,0,0,1-14.693-7.929,87,87,0,0,1-12.8-10.5A86.719,86.719,0,0,1,14.773,48.083,85.855,85.855,0,0,1,6.8,33.475a85.227,85.227,0,0,1-5.04-16.143A86.151,86.151,0,0,1,0,0H19.055c.007,36.883,30.213,66.889,67.333,66.889S153.714,36.883,153.721,0H173a86.149,86.149,0,0,1-1.757,17.332,85.19,85.19,0,0,1-5.04,16.143,85.819,85.819,0,0,1-7.975,14.608,86.72,86.72,0,0,1-10.562,12.728,87.027,87.027,0,0,1-12.8,10.5,86.628,86.628,0,0,1-14.693,7.929,86.421,86.421,0,0,1-16.237,5.011A87.611,87.611,0,0,1,86.5,86Z" transform="translate(-16526 -10837) rotate(-90)" fill="#d1d1d1"/><text transform="translate(-16554 -10898.654)" fill="#c79e61" font-size="15" font-family="MenckenStd-Bold, Mencken Std" font-weight="700"><tspan x="0" y="0">Catalyst</tspan></text><g transform="translate(-16551 -10951.346)"><path d="M0,18.355a2.239,2.239,0,0,1,3.808-1.6l4.257-1.277a2.238,2.238,0,0,1,4.436-.19l5.5,1.5a2.241,2.241,0,0,1,3.718-.92l13.3-12.951A2.238,2.238,0,1,1,37.155,4.48a2.224,2.224,0,0,1-1.346-.451L22.357,17.13a2.354,2.354,0,0,1,.024.33,2.239,2.239,0,0,1-4.356.728l-5.708-1.556a2.24,2.24,0,0,1-3.959.162L4.443,17.968a2.433,2.433,0,0,1,.033.387,2.238,2.238,0,1,1-4.476,0Z" transform="translate(2.238)" fill="#c79e61"/><path d="M49.243.593H0V-.75H49.243Z" transform="translate(0 28.283)" fill="#c79e61"/></g><path d="M86.5,86a87.612,87.612,0,0,1-17.433-1.747A86.42,86.42,0,0,1,52.83,79.242a86.647,86.647,0,0,1-14.693-7.929,87,87,0,0,1-12.8-10.5A86.719,86.719,0,0,1,14.773,48.083,85.855,85.855,0,0,1,6.8,33.475a85.227,85.227,0,0,1-5.04-16.143A86.151,86.151,0,0,1,0,0H19.055c.007,36.883,30.213,66.889,67.333,66.889S153.714,36.883,153.721,0H173a86.149,86.149,0,0,1-1.757,17.332,85.19,85.19,0,0,1-5.04,16.143,85.819,85.819,0,0,1-7.975,14.608,86.72,86.72,0,0,1-10.562,12.728,87.027,87.027,0,0,1-12.8,10.5,86.628,86.628,0,0,1-14.693,7.929,86.421,86.421,0,0,1-16.237,5.011A87.611,87.611,0,0,1,86.5,86Z" transform="translate(-16526 -11010) rotate(90)" fill="#c79e61"/><path d="M16.5,0,33,23H0Z" transform="translate(-16505 -10863) rotate(90)" fill="#c79e61"/></g></svg>