<?xml version="1.0" encoding="utf-8"?>
<!-- Generator: Adobe Illustrator 26.0.2, SVG Export Plug-In . SVG Version: 6.00 Build 0)  -->
<svg version="1.1" id="Layer_1" xmlns="http://www.w3.org/2000/svg" xmlns:xlink="http://www.w3.org/1999/xlink" x="0px" y="0px"
	 viewBox="0 0 172 180" style="enable-background:new 0 0 172 180;" xml:space="preserve">
<style type="text/css">
	.st0{fill-rule:evenodd;clip-rule:evenodd;fill:#009DBB;}
	.st1{enable-background:new    ;}
	.st2{fill:#009DBB;}
	.st3{fill:#D1D1D1;}
</style>
<g id="money-coin" transform="translate(72.96 52.339)">
	<path id="Path_67420" class="st0" d="M29.9,16.4c0,2.4-3.4,4.3-7.5,4.3s-7.5-1.9-7.5-4.3s3.4-4.3,7.5-4.3S29.9,14,29.9,16.4z"/>
	<path id="Path_67421" class="st0" d="M22.5,23.1c-5.4,0-7.5-2.2-7.5-3.5v5.6c0,2.4,3.4,4.3,7.5,4.3s7.5-1.9,7.5-4.3v-5.4
		C30,21,27.9,23.1,22.5,23.1z"/>
	<path id="Path_67422" class="st0" d="M22.5,31.7c-4.8,0-7.5-2.2-7.5-3.5v5.5c0,2.4,3.4,4.3,7.5,4.3s7.5-1.9,7.5-4.3v-5.6
		C30,29.5,27.3,31.7,22.5,31.7L22.5,31.7z"/>
	<path id="Path_67423" class="st0" d="M12.5,7.8c0,2.3-3.8,4.3-8.5,4.3s-8.5-2-8.5-4.3S-0.7,3.5,4,3.5S12.5,5.4,12.5,7.8z"/>
	<path id="Path_67424" class="st0" d="M4.3,14.5c-6.1,0-8.5-2.2-8.5-3.5v5.5c0,2.4,3.8,4.3,8.5,4.3s8.5-1.9,8.5-4.3V11
		C12.8,12.3,10.3,14.5,4.3,14.5z"/>
	<path id="Path_67425" class="st0" d="M4.3,23.1c-5.4,0-8.5-2.2-8.5-3.5v5.5c0,2.4,3.8,4.3,8.5,4.3s8.5-1.9,8.5-4.3v-5.6
		C12.8,20.8,9.7,23.1,4.3,23.1z"/>
	<path id="Path_67426" class="st0" d="M4.3,31.7c-5.4,0-8.5-2.2-8.5-3.5v5.5c0,2.4,3.8,4.3,8.5,4.3s8.5-1.9,8.5-4.3v-5.6
		C12.8,29.5,9.7,31.7,4.3,31.7L4.3,31.7z"/>
</g>
<g class="st1">
	<path class="st2" d="M71.8,114.2C71.7,114.2,71.7,114.2,71.8,114.2l-0.1-0.4c-0.7,0.3-1.8,0.5-2.8,0.5c-3.1,0-4.9-2.2-4.9-5.1
		c0-3.2,1.8-5.4,4.9-5.4c0.9,0,1.8,0.2,2.4,0.5V104c0-0.1,0-0.1,0.1-0.1h0.2c0.1,0,0.1,0,0.1,0.1v3.1c0,0.1,0,0.1-0.1,0.1h-0.3
		c-0.1,0-0.1,0-0.1-0.1v-0.2c0-1.5-0.9-2.6-2.3-2.6c-1.9,0-2.5,1.5-2.5,4.8c0,2.7,0.6,4.6,2.6,4.6c1.6,0,2.5-1,2.7-2.7v-0.4
		c0-0.1,0-0.1,0.1-0.1h0.3c0.1,0,0.1,0,0.1,0.1l-0.1,3.4c0,0.1,0,0.1-0.1,0.1L71.8,114.2L71.8,114.2z"/>
	<path class="st2" d="M78.3,114.2C78.2,114.2,78.2,114.2,78.3,114.2l-0.1-0.4c0-0.1,0-0.1,0.1-0.1h0.5c0.4,0,0.4-0.1,0.4-1.2v-3.7
		c0-1.2-0.5-1.6-1.3-1.6s-1.3,0.5-1.6,1.2v4.1c0,1.1,0,1.2,0.4,1.2h0.5c0.1,0,0.1,0,0.1,0.1v0.3c0,0.1,0,0.1-0.1,0.1h-4
		c-0.1,0-0.1,0-0.1-0.1v-0.3c0-0.1,0-0.1,0.1-0.1h0.6c0.4,0,0.4-0.1,0.4-1.2v-7.7c0-1.1,0-1.2-0.4-1.2h-0.6c-0.1,0-0.1,0-0.1-0.1
		v-0.3c0-0.1,0-0.1,0.1-0.1h3c0.1,0,0.1,0.1,0.1,0.2v4.3l0,0c0.4-0.7,1.2-1.3,2.5-1.3c1.2,0,2.5,0.6,2.5,2.6v3.6
		c0,1.1,0,1.2,0.4,1.2h0.6c0.1,0,0.1,0,0.1,0.1v0.3c0,0.1,0,0.1-0.1,0.1H78.3z"/>
	<path class="st2" d="M86.9,114.4c-2.4,0-4-1.5-4-3.9c0-2.3,1.4-4.2,3.9-4.2c1.8,0,3.3,1,3.3,3.2v0.1c0,0.4-0.1,0.5-0.6,0.5h-4.4
		v0.3c0,1.9,0.5,3.3,2.2,3.3c1.2,0,1.9-0.7,2.2-1.7c0-0.1,0.1-0.1,0.2-0.1H90c0.1,0,0.1,0.1,0.1,0.1
		C89.9,113.3,88.8,114.4,86.9,114.4z M86.7,106.7c-1.1,0-1.5,1-1.5,2.7h2.3c0.5,0,0.7-0.1,0.7-0.6C88.1,107.4,87.7,106.7,86.7,106.7
		z"/>
	<path class="st2" d="M98.2,113.7c0.2,0,0.4-0.2,0.5-0.4c0-0.1,0.1-0.1,0.2-0.1l0.2,0.1c0.1,0,0.1,0.1,0,0.2
		c-0.2,0.5-0.7,0.9-1.5,0.9c-0.9,0-1.6-0.5-1.7-1.4l0,0c-0.5,0.9-1.3,1.4-2.4,1.4c-1.2,0-2.2-0.7-2.2-2s0.8-1.9,2.6-2.4
		c1.9-0.6,1.9-0.7,1.9-1.1v-0.4c0-1.2-0.7-1.6-1.6-1.6c-0.5,0-0.9,0.1-1.2,0.3c0.2,0.3,0.3,0.7,0.3,1c0,0.4-0.2,0.8-0.8,0.8
		c-0.6,0-0.9-0.2-0.9-0.8c0-0.9,1.5-1.9,3.3-1.9c1.6,0,3,0.7,3,2.5v3.9C97.7,113.4,97.9,113.7,98.2,113.7z M95.7,109.8
		c-0.5,0.2-1,0.3-1.4,0.5c-0.7,0.3-1,0.8-1,1.6c0,0.9,0.3,1.4,1,1.4c0.6,0,1.1-0.4,1.4-1V109.8z"/>
	<path class="st2" d="M104.3,114.4c-0.7,0-1.4-0.2-1.9-0.7l0,0v1.7c0,1.2,0,1.3,0.4,1.3h0.9c0.1,0,0.1,0,0.1,0.1v0.3
		c0,0.1,0,0.1-0.1,0.1h-4.4c-0.1,0-0.1,0-0.1-0.1v-0.3c0-0.1,0-0.1,0.1-0.1h0.6c0.4,0,0.4-0.1,0.4-1.3v-7.3c0-1.2,0-1.2-0.4-1.2
		h-0.6c-0.1,0-0.1,0-0.1-0.1v-0.3c0-0.1,0-0.1,0.1-0.1h2.8c0.1,0,0.1,0.1,0.1,0.2v1.1l0,0c0.5-0.9,1.4-1.5,2.5-1.5
		c1.7,0,3,1.4,3,3.9C107.9,112.6,106.6,114.4,104.3,114.4z M104,107.2c-0.8,0-1.2,0.5-1.6,1.2v4.6c0.3,0.4,0.8,0.7,1.4,0.7
		c1.4,0,1.8-1.3,1.8-3.3C105.6,108.2,105.1,107.2,104,107.2z"/>
</g>
<g>
	<path class="st3" d="M86,153.9c36.9,0,66.9-30.2,66.9-67.3s-30-67.3-66.9-67.3V0c5.8,0,11.6,0.6,17.3,1.8c5.5,1.1,10.9,2.8,16.1,5
		c5.1,2.2,10,4.8,14.6,8c4.6,3.1,8.8,6.6,12.7,10.6c3.9,3.9,7.4,8.2,10.5,12.8c3.1,4.6,5.8,9.6,7.9,14.7c2.2,5.2,3.9,10.7,5,16.2
		c1.2,5.7,1.8,11.6,1.7,17.4c0,5.9-0.6,11.7-1.7,17.4c-1.1,5.6-2.8,11-5,16.2c-2.2,5.1-4.8,10.1-7.9,14.7
		c-3.1,4.6-6.6,8.9-10.5,12.8c-3.9,3.9-8.2,7.5-12.7,10.6c-4.6,3.1-9.5,5.8-14.6,8c-5.2,2.2-10.6,3.9-16.1,5
		c-5.7,1.2-11.5,1.8-17.3,1.8V153.9z"/>
	<path class="st2" d="M107,163l-21-16v6.9c-36.9,0-66.9-30.2-66.9-67.3s30-67.3,66.9-67.3V0c-5.8,0-11.6,0.6-17.3,1.8
		c-5.5,1.1-10.9,2.8-16.1,5c-5.1,2.2-10,4.8-14.6,8c-4.6,3.1-8.8,6.6-12.7,10.6c-3.9,3.9-7.4,8.2-10.5,12.8
		c-3.1,4.6-5.8,9.6-7.9,14.7c-2.2,5.2-3.9,10.7-5,16.2C0.6,74.8,0,80.6,0,86.5c0,5.9,0.6,11.7,1.7,17.4c1.1,5.6,2.8,11,5,16.2
		c2.2,5.1,4.8,10.1,7.9,14.7c3.1,4.6,6.6,8.9,10.5,12.8c3.9,3.9,8.2,7.5,12.7,10.6c4.6,3.1,9.5,5.8,14.6,8c5.2,2.2,10.6,3.9,16.1,5
		c5.7,1.2,11.5,1.8,17.3,1.8v6L107,163z"/>
</g>
</svg>
