<svg xmlns="http://www.w3.org/2000/svg" width="172" height="180" viewBox="0 0 172 180"><g transform="translate(16458.501 11010.5)"><g transform="translate(-16462.959 -11007)"><g transform="translate(72.96 52.339)"><path d="M34.039,12.726c0,2.35-3.354,4.255-7.491,4.255s-7.489-1.9-7.49-4.255,3.353-4.255,7.49-4.255,7.491,1.905,7.491,4.255Z" transform="translate(0.352 0.156)" fill="#009dbb" fill-rule="evenodd"/><path d="M26.66,19.294c-5.357,0-7.491-2.245-7.491-3.545V21.32c0,2.351,3.354,4.253,7.491,4.253s7.495-1.9,7.495-4.253V15.882C34.154,17.185,32.02,19.294,26.66,19.294Z" transform="translate(0.354 0.291)" fill="#009dbb" fill-rule="evenodd"/><path d="M26.66,27.746c-4.792,0-7.491-2.159-7.491-3.46v5.519c0,2.351,3.354,4.255,7.491,4.255s7.495-1.9,7.495-4.255V24.219c0,1.3-2.7,3.526-7.495,3.526Z" transform="translate(0.354 0.447)" fill="#009dbb" fill-rule="evenodd"/><path d="M16.982,4.255c0,2.35-3.8,4.255-8.491,4.255S0,6.605,0,4.255,3.8,0,8.491,0,16.982,1.905,16.982,4.255Z" transform="translate(0 0)" fill="#009dbb" fill-rule="evenodd"/><path d="M8.756,10.824C2.685,10.824.265,8.579.265,7.278v5.571c0,2.351,3.8,4.253,8.491,4.253s8.493-1.9,8.493-4.253V7.412C17.249,8.715,14.827,10.824,8.756,10.824Z" transform="translate(0.005 0.134)" fill="#009dbb" fill-rule="evenodd"/><path d="M8.756,19.275c-5.432,0-8.491-2.158-8.491-3.459v5.519c0,2.351,3.8,4.255,8.491,4.255s8.493-1.9,8.493-4.255V15.749c0,1.3-3.062,3.526-8.493,3.526Z" transform="translate(0.005 0.291)" fill="#009dbb" fill-rule="evenodd"/><path d="M8.756,27.746c-5.432,0-8.491-2.159-8.491-3.46v5.519c0,2.351,3.8,4.255,8.491,4.255s8.493-1.9,8.493-4.255V24.219c0,1.3-3.062,3.526-8.493,3.526Z" transform="translate(0.005 0.447)" fill="#009dbb" fill-rule="evenodd"/></g><text transform="translate(67.958 110.662)" fill="#009dbb" font-size="15" font-family="MenckenStd-Bold, Mencken Std" font-weight="700"><tspan x="0" y="0">Cheap</tspan></text><path d="M86.5,86a87.612,87.612,0,0,1-17.433-1.747A86.42,86.42,0,0,1,52.83,79.242a86.647,86.647,0,0,1-14.693-7.929,87,87,0,0,1-12.8-10.5A86.719,86.719,0,0,1,14.773,48.083,85.855,85.855,0,0,1,6.8,33.475a85.227,85.227,0,0,1-5.04-16.143A86.151,86.151,0,0,1,0,0H19.055c.007,36.883,30.213,66.889,67.333,66.889S153.714,36.883,153.721,0H173a86.149,86.149,0,0,1-1.757,17.332,85.19,85.19,0,0,1-5.04,16.143,85.819,85.819,0,0,1-7.975,14.608,86.72,86.72,0,0,1-10.562,12.728,87.027,87.027,0,0,1-12.8,10.5,86.628,86.628,0,0,1-14.693,7.929,86.421,86.421,0,0,1-16.237,5.011A87.611,87.611,0,0,1,86.5,86Z" transform="translate(90.458 -3.5) rotate(90)" fill="#d1d1d1"/><path d="M86.5,86a87.612,87.612,0,0,1-17.433-1.747A86.42,86.42,0,0,1,52.83,79.242a86.647,86.647,0,0,1-14.693-7.929,87,87,0,0,1-12.8-10.5A86.719,86.719,0,0,1,14.773,48.083,85.855,85.855,0,0,1,6.8,33.475a85.227,85.227,0,0,1-5.04-16.143A86.151,86.151,0,0,1,0,0H19.055c.007,36.883,30.213,66.889,67.333,66.889S153.714,36.883,153.721,0H173a86.149,86.149,0,0,1-1.757,17.332,85.19,85.19,0,0,1-5.04,16.143,85.819,85.819,0,0,1-7.975,14.608,86.72,86.72,0,0,1-10.562,12.728,87.027,87.027,0,0,1-12.8,10.5,86.628,86.628,0,0,1-14.693,7.929,86.421,86.421,0,0,1-16.237,5.011A87.611,87.611,0,0,1,86.5,86Z" transform="translate(90.458 169.5) rotate(-90)" fill="#009dbb"/><path d="M16.5,0,33,21H0Z" transform="translate(69.458 176.5) rotate(-90)" fill="#009dbb"/></g></g></svg>