<svg xmlns="http://www.w3.org/2000/svg" width="172" height="179" viewBox="0 0 172 179"><g transform="translate(16764 11013)"><text transform="translate(-16678 -10913)" fill="#016360" font-size="15" font-family="MenckenStd-Bold, Mencken Std" font-weight="700"><tspan x="-49.53" y="0">Competitively</tspan><tspan x="-21.323" y="19">stable</tspan></text><path d="M86.5,86a87.612,87.612,0,0,1-17.433-1.747A86.42,86.42,0,0,1,52.83,79.242a86.647,86.647,0,0,1-14.693-7.929,87,87,0,0,1-12.8-10.5A86.719,86.719,0,0,1,14.773,48.083,85.855,85.855,0,0,1,6.8,33.475a85.227,85.227,0,0,1-5.04-16.143A86.151,86.151,0,0,1,0,0H19.055c.007,36.883,30.213,66.889,67.333,66.889S153.714,36.883,153.721,0H173a86.149,86.149,0,0,1-1.757,17.332,85.19,85.19,0,0,1-5.04,16.143,85.819,85.819,0,0,1-7.975,14.608,86.72,86.72,0,0,1-10.562,12.728,87.027,87.027,0,0,1-12.8,10.5,86.628,86.628,0,0,1-14.693,7.929,86.421,86.421,0,0,1-16.237,5.011A87.611,87.611,0,0,1,86.5,86Z" transform="translate(-16678 -11013) rotate(90)" fill="#d1d1d1"/><path d="M9.236,7.736H28.178a1.579,1.579,0,1,1,0,3.157H9.236a1.579,1.579,0,1,1,0-3.157M32.914,3V6.157H4.5V3H32.914m-9.471,9.471H26.6v22.1H23.442v-22.1m-12.628,0h3.157v22.1H10.814v-22.1m6.314,0h3.157v22.1H17.128Z" transform="translate(-16697.5 -10965.387)" fill="#016360"/><path d="M86.5,86a87.612,87.612,0,0,1-17.433-1.747A86.42,86.42,0,0,1,52.83,79.242a86.647,86.647,0,0,1-14.693-7.929,87,87,0,0,1-12.8-10.5A86.719,86.719,0,0,1,14.773,48.083,85.855,85.855,0,0,1,6.8,33.475a85.227,85.227,0,0,1-5.04-16.143A86.151,86.151,0,0,1,0,0H19.055c.007,36.883,30.213,66.889,67.333,66.889S153.714,36.883,153.721,0H173a86.149,86.149,0,0,1-1.757,17.332,85.19,85.19,0,0,1-5.04,16.143,85.819,85.819,0,0,1-7.975,14.608,86.72,86.72,0,0,1-10.562,12.728,87.027,87.027,0,0,1-12.8,10.5,86.628,86.628,0,0,1-14.693,7.929,86.421,86.421,0,0,1-16.237,5.011A87.611,87.611,0,0,1,86.5,86Z" transform="translate(-16678 -10840) rotate(-90)" fill="#01625f"/><path d="M16,0,32,21H0Z" transform="translate(-16699 -10834) rotate(-90)" fill="#01625f"/></g></svg>