<svg xmlns="http://www.w3.org/2000/svg" width="172" height="180" viewBox="0 0 172 180"><g transform="translate(16918 11011)"><text transform="translate(-16832 -10910.584)" fill="#00008b" font-size="15" font-family="MenckenStd-Bold, Mencken Std" font-weight="700"><tspan x="-52.245" y="0">Conservatively</tspan><tspan x="-31.38" y="19">financed</tspan></text><path d="M86.5,86a87.612,87.612,0,0,1-17.433-1.747A86.42,86.42,0,0,1,52.83,79.242a86.647,86.647,0,0,1-14.693-7.929,87,87,0,0,1-12.8-10.5A86.719,86.719,0,0,1,14.773,48.083,85.855,85.855,0,0,1,6.8,33.475a85.227,85.227,0,0,1-5.04-16.143A86.151,86.151,0,0,1,0,0H19.055c.007,36.883,30.213,66.889,67.333,66.889S153.714,36.883,153.721,0H173a86.149,86.149,0,0,1-1.757,17.332,85.19,85.19,0,0,1-5.04,16.143,85.819,85.819,0,0,1-7.975,14.608,86.72,86.72,0,0,1-10.562,12.728,87.027,87.027,0,0,1-12.8,10.5,86.628,86.628,0,0,1-14.693,7.929,86.421,86.421,0,0,1-16.237,5.011A87.611,87.611,0,0,1,86.5,86Z" transform="translate(-16832 -10838) rotate(-90)" fill="#d1d1d1"/><path d="M1.284,21.005l2.537.629,1.91-3-3.63-.9A1.684,1.684,0,0,0,1.284,21Zm33.116.486-8.307,7.475-9.767-7.559a1.685,1.685,0,0,0-.629-.3l-1.3-.324-1.912,3,2.048.508,10.6,8.2a1.7,1.7,0,0,0,2.174-.08l9.359-8.427a1.675,1.675,0,0,0,.119-2.377,1.7,1.7,0,0,0-2.39-.119ZM16.164,13.279l9.1,5.824a1.7,1.7,0,0,0,2.308-.458l9.357-13.48a1.69,1.69,0,0,0-2.785-1.917L25.714,15.385,16.563,9.527a1.693,1.693,0,0,0-2.343.516L.265,31.946a1.689,1.689,0,0,0,2.854,1.808L16.163,13.279Z" transform="translate(-16850.998 -10962.935)" fill="#00008b"/><path d="M86.5,86a87.612,87.612,0,0,1-17.433-1.747A86.42,86.42,0,0,1,52.83,79.242a86.647,86.647,0,0,1-14.693-7.929,87,87,0,0,1-12.8-10.5A86.719,86.719,0,0,1,14.773,48.083,85.855,85.855,0,0,1,6.8,33.475a85.227,85.227,0,0,1-5.04-16.143A86.151,86.151,0,0,1,0,0H19.055c.007,36.883,30.213,66.889,67.333,66.889S153.714,36.883,153.721,0H173a86.149,86.149,0,0,1-1.757,17.332,85.19,85.19,0,0,1-5.04,16.143,85.819,85.819,0,0,1-7.975,14.608,86.72,86.72,0,0,1-10.562,12.728,87.027,87.027,0,0,1-12.8,10.5,86.628,86.628,0,0,1-14.693,7.929,86.421,86.421,0,0,1-16.237,5.011A87.611,87.611,0,0,1,86.5,86Z" transform="translate(-16832 -11011) rotate(90)" fill="#00008b"/><path d="M16.5,0,33,23H0Z" transform="translate(-16810 -10864) rotate(90)" fill="#00008b"/></g></svg>