<?xml version="1.0" encoding="utf-8"?>
<!-- Generator: Adobe Illustrator 26.0.2, SVG Export Plug-In . SVG Version: 6.00 Build 0)  -->
<svg version="1.1" id="Layer_1" xmlns="http://www.w3.org/2000/svg" xmlns:xlink="http://www.w3.org/1999/xlink" x="0px" y="0px"
	 viewBox="0 0 978 264" style="enable-background:new 0 0 978 264;" xml:space="preserve">
<style type="text/css">
	.st0{fill:#D1D1D1;}
	.st1{fill:#C79E61;}
	.st2{enable-background:new    ;}
	.st3{fill:#016360;}
	.st4{fill:#00008B;}
	.st5{fill-rule:evenodd;clip-rule:evenodd;fill:#009DBB;}
	.st6{fill:#009DBB;}
	.st7{fill:#01625F;}
</style>
<path id="Subtraction_59" class="st0" d="M601.8,264c-8.9,0-17.8-0.9-26.6-2.7c-8.5-1.7-16.8-4.3-24.8-7.7
	c-7.8-3.3-15.4-7.4-22.4-12.2c-7-4.7-13.6-10.1-19.5-16.1c-6-6-11.4-12.5-16.1-19.5c-4.8-7.1-8.8-14.6-12.2-22.4
	c-3.4-8-6-16.3-7.7-24.8c-1.8-8.8-2.7-17.7-2.7-26.6h29.1c0.1,56.7,46.1,102.6,102.8,102.7c56.7,0,102.7-46,102.8-102.7h29.3
	c0,8.9-0.9,17.8-2.7,26.6c-1.7,8.5-4.3,16.8-7.7,24.8c-3.3,7.8-7.4,15.4-12.2,22.4c-4.7,7-10.1,13.6-16.1,19.5
	c-6,6-12.5,11.4-19.5,16.1c-7.1,4.8-14.6,8.8-22.4,12.2c-8,3.4-16.3,6-24.8,7.7C619.6,263.1,610.7,264,601.8,264z"/>
<path id="Subtraction_65" class="st0" d="M836.6,0c8.9,0,17.8,0.9,26.6,2.7C871.7,4.4,880,7,888,10.4c7.8,3.3,15.4,7.4,22.4,12.2
	c7,4.7,13.6,10.1,19.5,16.1c6,6,11.4,12.5,16.1,19.5c4.8,7.1,8.8,14.6,12.2,22.4c3.4,8,6,16.3,7.7,24.8c1.8,8.8,2.7,17.7,2.7,26.6
	h-29.1c-0.1-56.7-46.1-102.6-102.8-102.7C780,29.3,734,75.3,733.9,132h-29.3c0-8.9,0.9-17.8,2.7-26.6c1.7-8.5,4.3-16.8,7.7-24.8
	c3.3-7.8,7.4-15.4,12.2-22.4c4.7-7,10.1-13.6,16.1-19.5c6-6,12.5-11.4,19.5-16.1c7.1-4.8,14.6-8.8,22.4-12.2c8-3.4,16.3-6,24.8-7.7
	C818.8,0.9,827.7,0,836.6,0z"/>
<path class="st1" d="M978,134l-25-33l-25,33h11.2c-0.9,56-46.6,101.2-102.8,101.2c-56.7-0.1-102.7-46-102.8-102.7h-29.1
	c0,8.9,0.9,17.8,2.7,26.6c1.7,8.5,4.3,16.8,7.7,24.8c3.4,7.8,7.4,15.3,12.2,22.4c4.7,7,10.1,13.5,16.1,19.5
	c5.9,6,12.5,11.4,19.5,16.1c7,4.8,14.6,8.9,22.4,12.2c8,3.4,16.3,6,24.8,7.7c8.8,1.8,17.7,2.7,26.6,2.7s17.8-0.9,26.7-2.7
	c8.5-1.7,16.8-4.3,24.8-7.7c7.8-3.4,15.3-7.4,22.4-12.2c7-4.7,13.5-10.1,19.5-16.1c6-5.9,11.4-12.5,16.1-19.5
	c4.8-7,8.9-14.6,12.2-22.4c3.4-8,6-16.3,7.7-24.8c1.7-8.3,2.6-16.7,2.7-25.1H978z"/>
<g class="st2">
	<path class="st3" d="M304.2,152.1c-0.2,0-0.2-0.1-0.2-0.2l-0.1-0.4c-1.1,0.5-2.8,0.8-4.5,0.8c-5,0-7.9-3.5-7.9-8.2
		c0-5.1,2.8-8.6,7.9-8.6c1.4,0,2.8,0.3,3.8,0.8l0.1-0.4c0-0.2,0-0.2,0.2-0.2h0.3c0.2,0,0.2,0,0.2,0.2v5c0,0.1,0,0.2-0.2,0.2h-0.5
		c-0.1,0-0.2,0-0.2-0.2v-0.4c-0.1-2.3-1.5-4.1-3.7-4.1c-3.1,0-3.9,2.4-3.9,7.7c0,4.3,0.9,7.3,4.2,7.3c2.5,0,4.1-1.6,4.3-4.3v-0.6
		c0-0.1,0-0.2,0.2-0.2h0.5c0.2,0,0.2,0,0.2,0.2l-0.2,5.4c0,0.1,0,0.2-0.2,0.2H304.2z"/>
	<path class="st3" d="M312.6,152.3c-4.1,0-6.3-2.4-6.3-6.3c0-3.9,2.3-6.7,6.5-6.7c4.1,0,6.3,2.4,6.3,6.2
		C319.1,149.5,316.8,152.3,312.6,152.3z M312.7,140.1c-2.1,0-2.7,2.2-2.7,5.8c0,3.4,0.6,5.5,2.7,5.5c2.1,0,2.7-2.2,2.7-5.9
		C315.4,142.2,314.8,140.1,312.7,140.1z"/>
	<path class="st3" d="M336.2,152c-0.1,0-0.2,0-0.2-0.2v-0.4c0-0.1,0-0.2,0.2-0.2h0.8c0.6,0,0.6-0.1,0.6-2v-5.9c0-1.9-0.8-2.6-2-2.6
		s-2,0.8-2.5,1.9v6.6c0,1.8,0,1.9,0.6,2h0.8c0.1,0,0.2,0,0.2,0.2v0.4c0,0.1,0,0.2-0.2,0.2h-6.1c-0.1,0-0.2,0-0.2-0.2v-0.4
		c0-0.1,0-0.2,0.2-0.2h0.8c0.6,0,0.6-0.1,0.6-2v-5.9c0-1.9-0.7-2.6-2-2.6c-1.2,0-2,0.8-2.5,1.9v6.6c0,1.8,0,1.9,0.6,2h0.8
		c0.1,0,0.2,0,0.2,0.2v0.4c0,0.1,0,0.2-0.2,0.2h-6.3c-0.1,0-0.2,0-0.2-0.2v-0.4c0-0.1,0-0.2,0.2-0.2h1c0.6,0,0.6-0.1,0.6-2v-6.9
		c0-1.8,0-2-0.6-2h-1c-0.1,0-0.2,0-0.2-0.2v-0.4c0-0.1,0-0.2,0.2-0.2h4.5c0.2,0,0.2,0.1,0.2,0.3v1.8h0.1c0.7-1.4,2-2.4,4.1-2.4
		c1.4,0,3,0.6,3.6,2.5l0,0c0.7-1.3,2.1-2.5,4.2-2.5c1.8,0,3.9,0.9,3.9,4.2v5.8c0,1.8,0,1.9,0.6,2h1c0.1,0,0.2,0,0.2,0.2v0.4
		c0,0.1,0,0.2-0.2,0.2L336.2,152L336.2,152z"/>
	<path class="st3" d="M351.4,152.3c-1.2,0-2.2-0.4-3-1.1h-0.1v2.7c0,1.8,0,2,0.6,2h1.5c0.1,0,0.2,0,0.2,0.2v0.4c0,0.1,0,0.2-0.2,0.2
		h-7c-0.2,0-0.2,0-0.2-0.2v-0.4c0-0.1,0-0.2,0.2-0.2h1c0.6,0,0.6-0.2,0.6-2v-11.6c0-1.8,0-2-0.6-2h-1c-0.2,0-0.2,0-0.2-0.2v-0.4
		c0-0.1,0-0.2,0.2-0.2h4.5c0.1,0,0.2,0.1,0.2,0.3v1.8l0,0c0.9-1.5,2.2-2.4,4.1-2.4c2.7,0,4.8,2.3,4.8,6.3
		C357.1,149.5,355.1,152.3,351.4,152.3z M350.9,140.8c-1.2,0-1.9,0.8-2.5,1.8v7.4c0.5,0.6,1.3,1.1,2.3,1.1c2.2,0,2.8-2,2.8-5.3
		C353.5,142.4,352.6,140.8,350.9,140.8z"/>
	<path class="st3" d="M365.2,152.3c-3.9,0-6.4-2.4-6.4-6.3c0-3.7,2.2-6.7,6.2-6.7c2.8,0,5.4,1.6,5.4,5.1v0.2c0,0.6-0.2,0.8-0.9,0.8
		h-7v0.4c0,3,0.8,5.2,3.6,5.2c1.9,0,3.1-1.1,3.5-2.6c0-0.1,0.1-0.2,0.2-0.2l0.4,0.1c0.1,0,0.2,0.1,0.1,0.2
		C369.8,150.6,368.2,152.3,365.2,152.3z M364.8,140.1c-1.8,0-2.4,1.6-2.4,4.4h3.6c0.8,0,1.1-0.2,1.1-0.9
		C367,141.2,366.3,140.1,364.8,140.1z"/>
	<path class="st3" d="M376.7,152.3c-2,0-3.6-1.2-3.6-3.7v-8h-1.6c-0.1,0-0.2,0-0.2-0.2v-0.6c0-0.1,0-0.2,0.2-0.2l1.6-0.1v-2.4
		c0-0.1,0-0.2,0.2-0.3c0.8-0.4,1.8-0.8,2.5-1.4c0.1-0.1,0.2-0.1,0.3-0.1h0.2c0.1,0,0.1,0,0.1,0.2v4h2.7c0.2,0,0.2,0,0.2,0.2v0.7
		c0,0.1,0,0.2-0.2,0.2h-2.7v8.3c0,1.4,0.3,2.1,1.3,2.1c0.7,0,1.2-0.4,1.3-1.3c0-0.1,0.1-0.2,0.2-0.2h0.4c0.1,0,0.2,0.1,0.1,0.2
		C379.5,151.4,378.4,152.3,376.7,152.3z"/>
	<path class="st3" d="M380.7,152c-0.1,0-0.2,0-0.2-0.2v-0.4c0-0.1,0-0.2,0.2-0.2h1c0.6,0,0.6-0.1,0.6-2v-6.9c0-1.8,0-2-0.6-2h-1
		c-0.1,0-0.2,0-0.2-0.2v-0.4c0-0.1,0-0.2,0.2-0.2h4.7c0.1,0,0.2,0.1,0.2,0.3v9.4c0,1.8,0,2,0.6,2h1c0.1,0,0.2,0,0.2,0.2v0.4
		c0,0.1,0,0.2-0.2,0.2L380.7,152L380.7,152z M384,137.3c-1.1,0-1.9-0.7-1.9-1.8c0-1,0.8-1.7,1.9-1.7c1.1,0,1.9,0.7,1.9,1.7
		S385.1,137.3,384,137.3z"/>
	<path class="st3" d="M393.4,152.3c-2,0-3.6-1.2-3.6-3.7v-8h-1.6c-0.1,0-0.2,0-0.2-0.2v-0.6c0-0.1,0-0.2,0.2-0.2l1.6-0.1v-2.4
		c0-0.1,0-0.2,0.2-0.3c0.8-0.4,1.8-0.8,2.5-1.4c0.1-0.1,0.2-0.1,0.3-0.1h0.2c0.1,0,0.1,0,0.1,0.2v4h2.7c0.2,0,0.2,0,0.2,0.2v0.7
		c0,0.1,0,0.2-0.2,0.2h-2.7v8.3c0,1.4,0.3,2.1,1.3,2.1c0.7,0,1.2-0.4,1.3-1.3c0-0.1,0.1-0.2,0.2-0.2h0.4c0.1,0,0.2,0.1,0.1,0.2
		C396.2,151.4,395.2,152.3,393.4,152.3z"/>
	<path class="st3" d="M397.4,152c-0.1,0-0.2,0-0.2-0.2v-0.4c0-0.1,0-0.2,0.2-0.2h1c0.6,0,0.6-0.1,0.6-2v-6.9c0-1.8,0-2-0.6-2h-1
		c-0.1,0-0.2,0-0.2-0.2v-0.4c0-0.1,0-0.2,0.2-0.2h4.7c0.1,0,0.2,0.1,0.2,0.3v9.4c0,1.8,0,2,0.6,2h1c0.1,0,0.2,0,0.2,0.2v0.4
		c0,0.1,0,0.2-0.2,0.2L397.4,152L397.4,152z M400.7,137.3c-1.1,0-1.9-0.7-1.9-1.8c0-1,0.8-1.7,1.9-1.7c1.1,0,1.9,0.7,1.9,1.7
		C402.6,136.5,401.8,137.3,400.7,137.3z"/>
	<path class="st3" d="M416.6,140.4c-0.5,0-0.7,0.3-1.1,1.2l-0.8,2.2l-3.2,8.3c0,0.1-0.1,0.2-0.2,0.2H410c-0.1,0-0.2,0-0.2-0.2
		l-3.7-9.6c-0.7-1.9-0.9-2.1-1.5-2.1h-0.2c-0.1,0-0.2,0-0.2-0.2v-0.4c0-0.1,0-0.2,0.2-0.2h6c0.1,0,0.2,0,0.2,0.2v0.4
		c0,0.1,0,0.2-0.2,0.2h-0.5c-0.4,0-0.6,0.1-0.6,0.5c0,0.3,0.1,0.8,0.5,1.7l2.2,6.2l0,0l1.7-4.8c0.3-0.8,0.6-1.8,0.6-2.4
		c0-0.7-0.3-1.1-0.9-1.1h-0.6c-0.1,0-0.2,0-0.2-0.2v-0.4c0-0.1,0-0.2,0.2-0.2h4.2c0.1,0,0.2,0,0.2,0.2v0.4c0,0.1,0,0.2-0.2,0.2
		L416.6,140.4z"/>
	<path class="st3" d="M423.3,152.3c-3.9,0-6.4-2.4-6.4-6.3c0-3.7,2.2-6.7,6.2-6.7c2.8,0,5.4,1.6,5.4,5.1v0.2c0,0.6-0.2,0.8-0.9,0.8
		h-7v0.4c0,3,0.8,5.2,3.6,5.2c1.9,0,3.1-1.1,3.5-2.6c0-0.1,0.1-0.2,0.2-0.2l0.4,0.1c0.1,0,0.2,0.1,0.1,0.2
		C428,150.6,426.3,152.3,423.3,152.3z M422.9,140.1c-1.8,0-2.4,1.6-2.4,4.4h3.6c0.8,0,1.1-0.2,1.1-0.9
		C425.2,141.2,424.5,140.1,422.9,140.1z"/>
	<path class="st3" d="M429.9,152c-0.1,0-0.2,0-0.2-0.2v-0.4c0-0.1,0-0.2,0.2-0.2h1c0.6,0,0.6-0.1,0.6-2V137c0-1.8,0-2-0.6-2h-1
		c-0.1,0-0.2,0-0.2-0.2v-0.4c0-0.1,0-0.2,0.2-0.2h4.7c0.1,0,0.2,0.1,0.2,0.3v14.7c0,1.8,0,2,0.6,2h1c0.1,0,0.2,0,0.2,0.2v0.4
		c0,0.1,0,0.2-0.2,0.2H429.9z"/>
	<path class="st3" d="M448.7,140.4c-0.5,0-0.7,0.3-1.1,1.2c-0.2,0.5-0.5,1.3-0.8,2.2l-3.4,9.6c-0.3,0.8-0.5,1.4-0.5,1.8
		c0,0.5,0.2,0.7,0.8,0.7h0.6c0.1,0,0.2,0,0.2,0.2v0.4c0,0.1,0,0.2-0.2,0.2h-5.1c-0.1,0-0.2,0-0.2-0.2v-0.4c0-0.1,0-0.2,0.2-0.2h0.8
		c1.1,0,1.6-0.7,2.2-2.6l0.3-1.1c0.1-0.2,0-0.3,0-0.5l-4.5-9.4c-0.9-1.9-1-2.1-1.6-2.1h-0.1c-0.1,0-0.2,0-0.2-0.2v-0.4
		c0-0.1,0-0.2,0.2-0.2h6c0.1,0,0.2,0,0.2,0.2v0.4c0,0.1,0,0.2-0.2,0.2h-0.6c-0.4,0-0.6,0.1-0.6,0.5c0,0.3,0.2,0.8,0.5,1.7l2.4,5.7
		l0,0l1.4-4.3c0.3-0.9,0.6-1.8,0.6-2.4c0-0.7-0.3-1.1-0.9-1.1h-0.6c-0.1,0-0.2,0-0.2-0.2v-0.4c0-0.1,0-0.2,0.2-0.2h4.2
		c0.1,0,0.2,0,0.2,0.2v0.4c0,0.1,0,0.2-0.2,0.2L448.7,140.4z"/>
</g>
<g class="st2">
	<path class="st3" d="M340.9,183.3c-1.2,0-2.4-0.3-3.2-0.8v0.4c0,0.1,0,0.2-0.2,0.2h-0.3c-0.1,0-0.2,0-0.2-0.2l-0.2-3.9
		c0-0.1,0-0.2,0.2-0.2h0.4c0.1,0,0.2,0,0.2,0.2v0.5c0.2,1.5,1.5,3,3.3,3c1.4,0,2.3-0.6,2.3-1.8c0-1.3-1.3-2-2.8-2.7
		c-1.8-0.8-3.5-1.8-3.5-4.1c0-2.1,1.7-3.7,4.4-3.7c1,0,2.1,0.3,2.8,0.7l0.1-0.4c0-0.1,0-0.2,0.2-0.2h0.3c0.1,0,0.2,0,0.2,0.2v3.6
		c0,0.2,0,0.2-0.2,0.2h-0.4c-0.1,0-0.2,0-0.2-0.2v-0.3c0-1.7-1.3-2.9-2.7-2.9c-1.2,0-1.8,0.6-1.8,1.5c0,1.2,1.1,1.8,2.7,2.6
		c2,1,3.6,1.8,3.6,4.3C345.9,181.8,343.7,183.3,340.9,183.3z"/>
	<path class="st3" d="M352.1,183.3c-2,0-3.6-1.2-3.6-3.7v-8h-1.6c-0.1,0-0.2,0-0.2-0.2v-0.6c0-0.1,0-0.2,0.2-0.2l1.6-0.1v-2.4
		c0-0.1,0-0.2,0.2-0.3c0.8-0.4,1.8-0.8,2.5-1.4c0.1-0.1,0.2-0.1,0.3-0.1h0.2c0.1,0,0.1,0,0.1,0.2v4h2.7c0.2,0,0.2,0,0.2,0.2v0.7
		c0,0.1,0,0.2-0.2,0.2h-2.7v8.3c0,1.4,0.3,2.1,1.3,2.1c0.7,0,1.2-0.4,1.3-1.3c0-0.1,0.1-0.2,0.2-0.2h0.4c0.1,0,0.2,0.1,0.1,0.2
		C354.8,182.4,353.8,183.3,352.1,183.3z"/>
	<path class="st3" d="M367.3,182.2c0.4,0,0.6-0.3,0.8-0.6c0-0.1,0.1-0.1,0.2-0.1l0.3,0.1c0.1,0,0.1,0.1,0.1,0.3
		c-0.3,0.9-1.2,1.4-2.5,1.4c-1.5,0-2.5-0.8-2.7-2.3h-0.1c-0.9,1.5-2.1,2.3-3.9,2.3c-2,0-3.5-1.1-3.5-3.2c0-2.2,1.2-3,4.2-3.9
		s3.1-1.1,3.1-1.8v-0.6c0-1.8-1.1-2.5-2.5-2.5c-0.7,0-1.4,0.2-1.9,0.5c0.3,0.6,0.5,1.1,0.5,1.6c0,0.7-0.3,1.2-1.3,1.2
		c-0.9,0-1.5-0.4-1.5-1.2c0-1.5,2.4-3.1,5.2-3.1c2.5,0,4.8,1.1,4.8,4v6.3C366.7,181.8,366.9,182.2,367.3,182.2z M363.4,176.1
		c-0.8,0.2-1.6,0.5-2.2,0.8c-1.2,0.6-1.6,1.3-1.6,2.6c0,1.4,0.6,2.3,1.6,2.3s1.7-0.7,2.3-1.7L363.4,176.1L363.4,176.1z"/>
	<path class="st3" d="M377.1,183.3c-1.4,0-2.6-0.5-3.5-1.4h-0.1l-2,1.2c-0.1,0.1-0.2,0.1-0.4,0.1h-0.3c-0.2,0-0.2,0-0.2-0.2v-15
		c0-1.8,0-2-0.6-2h-1c-0.1,0-0.2,0-0.2-0.2v-0.4c0-0.1,0-0.2,0.2-0.2h4.7c0.1,0,0.2,0.1,0.2,0.3v6.8l0,0c0.8-1.3,2.1-2.1,3.9-2.1
		c2.7,0,4.8,2.3,4.8,6.3C382.8,180.5,380.7,183.3,377.1,183.3z M376.6,171.8c-1.2,0-2,0.8-2.5,1.8v7.4c0.5,0.6,1.3,1.1,2.3,1.1
		c2.2,0,2.8-2,2.8-5.3C379.1,173.4,378.3,171.8,376.6,171.8z"/>
	<path class="st3" d="M384,183c-0.1,0-0.2,0-0.2-0.2v-0.4c0-0.1,0-0.2,0.2-0.2h1c0.6,0,0.6-0.1,0.6-2V168c0-1.8,0-2-0.6-2h-1
		c-0.1,0-0.2,0-0.2-0.2v-0.4c0-0.1,0-0.2,0.2-0.2h4.7c0.1,0,0.2,0.1,0.2,0.3v14.7c0,1.8,0,2,0.6,2h1c0.1,0,0.2,0,0.2,0.2v0.4
		c0,0.1,0,0.2-0.2,0.2H384z"/>
	<path class="st3" d="M398.2,183.3c-3.9,0-6.4-2.4-6.4-6.3c0-3.7,2.2-6.7,6.2-6.7c2.8,0,5.4,1.6,5.4,5.1v0.2c0,0.6-0.2,0.8-0.9,0.8
		h-7v0.4c0,3,0.8,5.2,3.6,5.2c1.9,0,3.1-1.1,3.5-2.6c0-0.1,0.1-0.2,0.2-0.2l0.4,0.1c0.1,0,0.2,0.1,0.1,0.2
		C402.8,181.6,401.2,183.3,398.2,183.3z M397.8,171.1c-1.8,0-2.4,1.6-2.4,4.4h3.6c0.8,0,1.1-0.2,1.1-0.9
		C400,172.2,399.3,171.1,397.8,171.1z"/>
</g>
<g class="st2">
	<path class="st4" d="M60.8,152.1c-0.2,0-0.2-0.1-0.2-0.2l-0.1-0.4c-1.1,0.5-2.8,0.8-4.5,0.8c-5,0-7.9-3.5-7.9-8.2
		c0-5.1,2.8-8.6,7.9-8.6c1.4,0,2.8,0.3,3.8,0.8l0.1-0.4c0-0.2,0-0.2,0.2-0.2h0.3c0.2,0,0.2,0,0.2,0.2v5c0,0.1,0,0.2-0.2,0.2H60
		c-0.1,0-0.2,0-0.2-0.2v-0.4c-0.1-2.3-1.5-4.1-3.7-4.1c-3.1,0-3.9,2.4-3.9,7.7c0,4.3,0.9,7.3,4.2,7.3c2.5,0,4.1-1.6,4.3-4.3v-0.6
		c0-0.1,0-0.2,0.2-0.2h0.5c0.2,0,0.2,0,0.2,0.2l-0.2,5.4c0,0.1,0,0.2-0.2,0.2H60.8z"/>
	<path class="st4" d="M69.2,152.3c-4.1,0-6.3-2.4-6.3-6.3c0-3.9,2.3-6.7,6.5-6.7c4.1,0,6.3,2.4,6.3,6.2
		C75.7,149.5,73.4,152.3,69.2,152.3z M69.4,140.1c-2.1,0-2.7,2.2-2.7,5.8c0,3.4,0.6,5.5,2.7,5.5c2.1,0,2.7-2.2,2.7-5.9
		C72.1,142.2,71.5,140.1,69.4,140.1z"/>
	<path class="st4" d="M85.4,152c-0.1,0-0.2,0-0.2-0.2v-0.4c0-0.1,0-0.2,0.2-0.2h0.8c0.6,0,0.6-0.1,0.6-2v-5.9c0-1.9-0.8-2.6-2.2-2.6
		c-1.3,0-2.1,0.8-2.7,1.9v6.6c0,1.8,0,1.9,0.6,2h0.8c0.1,0,0.2,0,0.2,0.2v0.4c0,0.1,0,0.2-0.2,0.2H77c-0.1,0-0.2,0-0.2-0.2v-0.4
		c0-0.1,0-0.2,0.2-0.2h1c0.6,0,0.6-0.1,0.6-2v-6.9c0-1.8,0-2-0.6-2h-1c-0.1,0-0.2,0-0.2-0.2v-0.4c0-0.1,0-0.2,0.2-0.2h4.5
		c0.2,0,0.2,0.1,0.2,0.3v1.8h0.1c0.7-1.4,2.1-2.4,4.2-2.4c1.9,0,4.1,0.9,4.1,4.2v5.8c0,1.8,0,2,0.6,2h1c0.1,0,0.2,0,0.2,0.2v0.4
		c0,0.1,0,0.2-0.2,0.2L85.4,152L85.4,152z"/>
	<path class="st4" d="M97.1,152.3c-1.2,0-2.4-0.3-3.2-0.8v0.4c0,0.1,0,0.2-0.2,0.2h-0.3c-0.1,0-0.2,0-0.2-0.2L93,148
		c0-0.1,0-0.2,0.2-0.2h0.4c0.1,0,0.2,0,0.2,0.2v0.5c0.2,1.5,1.5,3,3.3,3c1.4,0,2.3-0.6,2.3-1.8c0-1.3-1.3-2-2.8-2.7
		c-1.8-0.8-3.5-1.8-3.5-4.1c0-2.1,1.7-3.7,4.4-3.7c1,0,2.1,0.3,2.8,0.7l0.1-0.4c0-0.1,0-0.2,0.2-0.2h0.3c0.1,0,0.2,0,0.2,0.2v3.6
		c0,0.2,0,0.2-0.2,0.2h-0.4c-0.1,0-0.2,0-0.2-0.2v-0.3c0-1.7-1.3-2.9-2.7-2.9c-1.2,0-1.8,0.6-1.8,1.5c0,1.2,1.1,1.8,2.7,2.6
		c2,1,3.6,1.8,3.6,4.3C102.2,150.8,99.9,152.3,97.1,152.3z"/>
	<path class="st4" d="M109.9,152.3c-3.9,0-6.4-2.4-6.4-6.3c0-3.7,2.2-6.7,6.2-6.7c2.8,0,5.4,1.6,5.4,5.1v0.2c0,0.6-0.2,0.8-0.9,0.8
		h-7v0.4c0,3,0.8,5.2,3.6,5.2c1.9,0,3.1-1.1,3.5-2.6c0-0.1,0.1-0.2,0.2-0.2l0.4,0.1c0.1,0,0.2,0.1,0.1,0.2
		C114.6,150.6,112.9,152.3,109.9,152.3z M109.5,140.1c-1.8,0-2.4,1.6-2.4,4.4h3.6c0.8,0,1.1-0.2,1.1-0.9
		C111.8,141.2,111,140.1,109.5,140.1z"/>
	<path class="st4" d="M116.4,152c-0.1,0-0.2,0-0.2-0.2v-0.4c0-0.1,0-0.2,0.2-0.2h1c0.6,0,0.6-0.1,0.6-2v-6.5c0-2.3-0.2-2.4-0.8-2.4
		h-0.8c-0.1,0-0.2,0-0.2-0.2v-0.4c0-0.1,0-0.2,0.2-0.2h4.4c0.2,0,0.2,0.1,0.2,0.3v2.1h0.1c0.8-1.7,1.9-2.7,3.3-2.7
		c1.4,0,2.3,1.1,2.3,2.5c0,1-0.6,1.5-1.7,1.5c-1.1,0-1.5-0.6-1.5-1.3c0-0.5,0.2-0.9,0.5-1.3c-0.1,0-0.2,0-0.3,0
		c-1,0-1.7,0.8-2.4,2.3v6.4c0,1.8,0,2,0.6,2h1.6c0.1,0,0.2,0,0.2,0.2v0.4c0,0.1,0,0.2-0.2,0.2h-7.1V152z"/>
	<path class="st4" d="M139.8,140.4c-0.5,0-0.7,0.3-1.1,1.2l-0.8,2.2l-3.2,8.3c0,0.1-0.1,0.2-0.2,0.2H133c-0.1,0-0.2,0-0.2-0.2
		l-3.7-9.6c-0.7-1.9-0.9-2.1-1.5-2.1h-0.2c-0.1,0-0.2,0-0.2-0.2v-0.4c0-0.1,0-0.2,0.2-0.2h6c0.1,0,0.2,0,0.2,0.2v0.4
		c0,0.1,0,0.2-0.2,0.2h-0.5c-0.4,0-0.6,0.1-0.6,0.5c0,0.3,0.1,0.8,0.5,1.7l2.2,6.2l0,0l1.7-4.8c0.3-0.8,0.6-1.8,0.6-2.4
		c0-0.7-0.3-1.1-0.9-1.1h-0.6c-0.1,0-0.2,0-0.2-0.2v-0.4c0-0.1,0-0.2,0.2-0.2h4.2c0.1,0,0.2,0,0.2,0.2v0.4c0,0.1,0,0.2-0.2,0.2
		L139.8,140.4z"/>
	<path class="st4" d="M151.8,151.2c0.4,0,0.6-0.3,0.8-0.6c0-0.1,0.1-0.1,0.2-0.1l0.3,0.1c0.1,0,0.1,0.1,0.1,0.3
		c-0.3,0.9-1.2,1.4-2.5,1.4c-1.5,0-2.5-0.8-2.7-2.3h-0.1c-0.9,1.5-2.1,2.3-3.9,2.3c-2,0-3.5-1.1-3.5-3.2c0-2.2,1.2-3,4.2-3.9
		s3.1-1.1,3.1-1.8v-0.6c0-1.8-1.1-2.5-2.5-2.5c-0.7,0-1.4,0.2-1.9,0.5c0.3,0.6,0.5,1.1,0.5,1.6c0,0.7-0.3,1.2-1.3,1.2
		c-0.9,0-1.5-0.4-1.5-1.2c0-1.5,2.4-3.1,5.2-3.1c2.5,0,4.8,1.1,4.8,4v6.3C151.1,150.8,151.3,151.2,151.8,151.2z M147.8,145.1
		c-0.8,0.2-1.6,0.5-2.2,0.8c-1.2,0.6-1.6,1.3-1.6,2.6c0,1.4,0.6,2.3,1.6,2.3s1.7-0.7,2.3-1.7L147.8,145.1L147.8,145.1z"/>
	<path class="st4" d="M158.8,152.3c-2,0-3.6-1.2-3.6-3.7v-8h-1.6c-0.1,0-0.2,0-0.2-0.2v-0.6c0-0.1,0-0.2,0.2-0.2l1.6-0.1v-2.4
		c0-0.1,0-0.2,0.2-0.3c0.8-0.4,1.8-0.8,2.5-1.4c0.1-0.1,0.2-0.1,0.3-0.1h0.2c0.1,0,0.1,0,0.1,0.2v4h2.7c0.2,0,0.2,0,0.2,0.2v0.7
		c0,0.1,0,0.2-0.2,0.2h-2.7v8.3c0,1.4,0.3,2.1,1.3,2.1c0.7,0,1.2-0.4,1.3-1.3c0-0.1,0.1-0.2,0.2-0.2h0.4c0.1,0,0.2,0.1,0.1,0.2
		C161.6,151.4,160.5,152.3,158.8,152.3z"/>
	<path class="st4" d="M162.8,152c-0.1,0-0.2,0-0.2-0.2v-0.4c0-0.1,0-0.2,0.2-0.2h1c0.6,0,0.6-0.1,0.6-2v-6.9c0-1.8,0-2-0.6-2h-1
		c-0.1,0-0.2,0-0.2-0.2v-0.4c0-0.1,0-0.2,0.2-0.2h4.7c0.1,0,0.2,0.1,0.2,0.3v9.4c0,1.8,0,2,0.6,2h1c0.1,0,0.2,0,0.2,0.2v0.4
		c0,0.1,0,0.2-0.2,0.2L162.8,152L162.8,152z M166.1,137.3c-1.1,0-1.9-0.7-1.9-1.8c0-1,0.8-1.7,1.9-1.7c1.1,0,1.9,0.7,1.9,1.7
		C167.9,136.5,167.1,137.3,166.1,137.3z"/>
	<path class="st4" d="M181.9,140.4c-0.5,0-0.7,0.3-1.1,1.2l-0.8,2.2l-3.2,8.3c0,0.1-0.1,0.2-0.2,0.2h-1.3c-0.1,0-0.2,0-0.2-0.2
		l-3.7-9.6c-0.7-1.9-0.9-2.1-1.5-2.1h-0.2c-0.1,0-0.2,0-0.2-0.2v-0.4c0-0.1,0-0.2,0.2-0.2h6c0.1,0,0.2,0,0.2,0.2v0.4
		c0,0.1,0,0.2-0.2,0.2H175c-0.4,0-0.6,0.1-0.6,0.5c0,0.3,0.1,0.8,0.5,1.7l2.2,6.2l0,0l1.7-4.8c0.3-0.8,0.6-1.8,0.6-2.4
		c0-0.7-0.3-1.1-0.9-1.1h-0.6c-0.1,0-0.2,0-0.2-0.2v-0.4c0-0.1,0-0.2,0.2-0.2h4.2c0.1,0,0.2,0,0.2,0.2v0.4c0,0.1,0,0.2-0.2,0.2
		L181.9,140.4z"/>
	<path class="st4" d="M188.6,152.3c-3.9,0-6.4-2.4-6.4-6.3c0-3.7,2.2-6.7,6.2-6.7c2.8,0,5.4,1.6,5.4,5.1v0.2c0,0.6-0.2,0.8-0.9,0.8
		h-7v0.4c0,3,0.8,5.2,3.6,5.2c1.9,0,3.1-1.1,3.5-2.6c0-0.1,0.1-0.2,0.2-0.2l0.4,0.1c0.1,0,0.2,0.1,0.1,0.2
		C193.3,150.6,191.6,152.3,188.6,152.3z M188.3,140.1c-1.8,0-2.4,1.6-2.4,4.4h3.6c0.8,0,1.1-0.2,1.1-0.9
		C190.5,141.2,189.8,140.1,188.3,140.1z"/>
	<path class="st4" d="M195.2,152c-0.1,0-0.2,0-0.2-0.2v-0.4c0-0.1,0-0.2,0.2-0.2h1c0.6,0,0.6-0.1,0.6-2V137c0-1.8,0-2-0.6-2h-1
		c-0.1,0-0.2,0-0.2-0.2v-0.4c0-0.1,0-0.2,0.2-0.2h4.7c0.1,0,0.2,0.1,0.2,0.3v14.7c0,1.8,0,2,0.6,2h1c0.1,0,0.2,0,0.2,0.2v0.4
		c0,0.1,0,0.2-0.2,0.2H195.2z"/>
	<path class="st4" d="M214,140.4c-0.5,0-0.7,0.3-1.1,1.2c-0.2,0.5-0.5,1.3-0.8,2.2l-3.4,9.6c-0.3,0.8-0.5,1.4-0.5,1.8
		c0,0.5,0.2,0.7,0.8,0.7h0.6c0.1,0,0.2,0,0.2,0.2v0.4c0,0.1,0,0.2-0.2,0.2h-5.1c-0.1,0-0.2,0-0.2-0.2v-0.4c0-0.1,0-0.2,0.2-0.2h0.8
		c1.1,0,1.6-0.7,2.2-2.6l0.3-1.1c0.1-0.2,0-0.3,0-0.5l-4.5-9.4c-0.9-1.9-1-2.1-1.6-2.1h-0.1c-0.1,0-0.2,0-0.2-0.2v-0.4
		c0-0.1,0-0.2,0.2-0.2h6c0.1,0,0.2,0,0.2,0.2v0.4c0,0.1,0,0.2-0.2,0.2H207c-0.4,0-0.6,0.1-0.6,0.5c0,0.3,0.2,0.8,0.5,1.7l2.4,5.7
		l0,0l1.4-4.3c0.3-0.9,0.6-1.8,0.6-2.4c0-0.7-0.3-1.1-0.9-1.1H210c-0.1,0-0.2,0-0.2-0.2v-0.4c0-0.1,0-0.2,0.2-0.2h4.2
		c0.1,0,0.2,0,0.2,0.2v0.4c0,0.1,0,0.2-0.2,0.2L214,140.4z"/>
</g>
<g class="st2">
	<path class="st4" d="M89.5,183c-0.1,0-0.2,0-0.2-0.2v-0.4c0-0.1,0-0.2,0.2-0.2h1c0.6,0,0.6-0.1,0.6-2v-6.6c0-1.8,0-2-0.6-2h-4.2
		v8.6c0,1.8,0,2,0.6,2h1c0.1,0,0.2,0,0.2,0.2v0.4c0,0.1,0,0.2-0.2,0.2h-6.6c-0.1,0-0.2,0-0.2-0.2v-0.4c0-0.1,0-0.2,0.2-0.2h1
		c0.6,0,0.6-0.1,0.6-2v-8.6h-1.7c-0.1,0-0.2,0-0.2-0.2v-0.6c0-0.1,0-0.2,0.2-0.2l1.7-0.1v-0.6c0-3.1,2.6-4.7,6.3-4.7
		c2.6,0,4.9,0.9,4.9,2.7c0,0.9-0.7,1.4-1.8,1.4c-1.2,0-1.7-0.6-1.7-1.2c0-0.6,0.3-1.1,0.6-1.6c-0.5-0.2-1.1-0.3-1.6-0.3
		c-2.2,0-3.3,1.3-3.3,3.7v0.8h7.9c0.1,0,0.2,0.1,0.2,0.3v9.4c0,1.8,0,2,0.6,2h1c0.1,0,0.2,0,0.2,0.2v0.4c0,0.1,0,0.2-0.2,0.2h-6.5
		V183z"/>
	<path class="st4" d="M105.7,183c-0.1,0-0.2,0-0.2-0.2v-0.4c0-0.1,0-0.2,0.2-0.2h0.8c0.6,0,0.6-0.1,0.6-2v-5.9
		c0-1.9-0.8-2.6-2.2-2.6c-1.3,0-2.1,0.8-2.7,1.9v6.6c0,1.8,0,1.9,0.6,2h0.8c0.1,0,0.2,0,0.2,0.2v0.4c0,0.1,0,0.2-0.2,0.2h-6.3
		c-0.1,0-0.2,0-0.2-0.2v-0.4c0-0.1,0-0.2,0.2-0.2h1c0.6,0,0.6-0.1,0.6-2v-6.9c0-1.8,0-2-0.6-2h-1c-0.1,0-0.2,0-0.2-0.2v-0.4
		c0-0.1,0-0.2,0.2-0.2h4.5c0.2,0,0.2,0.1,0.2,0.3v1.8h0.1c0.7-1.4,2.1-2.4,4.2-2.4c1.9,0,4.1,0.9,4.1,4.2v5.8c0,1.8,0,2,0.6,2h1
		c0.1,0,0.2,0,0.2,0.2v0.4c0,0.1,0,0.2-0.2,0.2L105.7,183L105.7,183z"/>
	<path class="st4" d="M124.6,182.2c0.4,0,0.6-0.3,0.8-0.6c0-0.1,0.1-0.1,0.2-0.1l0.3,0.1c0.1,0,0.1,0.1,0.1,0.3
		c-0.3,0.9-1.2,1.4-2.5,1.4c-1.5,0-2.5-0.8-2.7-2.3h-0.1c-0.9,1.5-2.1,2.3-3.9,2.3c-2,0-3.5-1.1-3.5-3.2c0-2.2,1.2-3,4.2-3.9
		s3.1-1.1,3.1-1.8v-0.6c0-1.8-1.1-2.5-2.5-2.5c-0.7,0-1.4,0.2-1.9,0.5c0.3,0.6,0.5,1.1,0.5,1.6c0,0.7-0.3,1.2-1.3,1.2
		c-0.9,0-1.5-0.4-1.5-1.2c0-1.5,2.4-3.1,5.2-3.1c2.5,0,4.8,1.1,4.8,4v6.3C123.9,181.8,124.1,182.2,124.6,182.2z M120.6,176.1
		c-0.8,0.2-1.6,0.5-2.2,0.8c-1.2,0.6-1.6,1.3-1.6,2.6c0,1.4,0.6,2.3,1.6,2.3s1.7-0.7,2.3-1.7L120.6,176.1L120.6,176.1z"/>
	<path class="st4" d="M135,183c-0.1,0-0.2,0-0.2-0.2v-0.4c0-0.1,0-0.2,0.2-0.2h0.8c0.6,0,0.6-0.1,0.6-2v-5.9c0-1.9-0.8-2.6-2.2-2.6
		c-1.3,0-2.1,0.8-2.7,1.9v6.6c0,1.8,0,1.9,0.6,2h0.8c0.1,0,0.2,0,0.2,0.2v0.4c0,0.1,0,0.2-0.2,0.2h-6.3c-0.1,0-0.2,0-0.2-0.2v-0.4
		c0-0.1,0-0.2,0.2-0.2h1c0.6,0,0.6-0.1,0.6-2v-6.9c0-1.8,0-2-0.6-2h-1c-0.1,0-0.2,0-0.2-0.2v-0.4c0-0.1,0-0.2,0.2-0.2h4.5
		c0.2,0,0.2,0.1,0.2,0.3v1.8h0.1c0.7-1.4,2.1-2.4,4.2-2.4c1.9,0,4.1,0.9,4.1,4.2v5.8c0,1.8,0,2,0.6,2h1c0.1,0,0.2,0,0.2,0.2v0.4
		c0,0.1,0,0.2-0.2,0.2L135,183L135,183z"/>
	<path class="st4" d="M148.3,183.3c-3.6,0-6-2.4-6-6.3c0-3.8,2.2-6.7,6.3-6.7c2.3,0,4,1.1,4,2.8c0,0.9-0.6,1.4-1.7,1.4
		c-1.1,0-1.6-0.6-1.6-1.3c0-0.6,0.2-1.2,0.6-1.7c-0.3-0.1-0.7-0.3-1.2-0.3c-2,0-2.8,1.5-2.8,5.5c0,3.5,0.7,5.4,3.1,5.4
		c1.6,0,2.6-1.1,3-2.7c0-0.1,0.1-0.2,0.2-0.1l0.4,0.1c0.1,0,0.2,0.1,0.1,0.3C152.4,181.6,150.9,183.3,148.3,183.3z"/>
	<path class="st4" d="M160.2,183.3c-3.9,0-6.4-2.4-6.4-6.3c0-3.7,2.2-6.7,6.2-6.7c2.8,0,5.4,1.6,5.4,5.1v0.2c0,0.6-0.2,0.8-0.9,0.8
		h-7v0.4c0,3,0.8,5.2,3.6,5.2c1.9,0,3.1-1.1,3.5-2.6c0-0.1,0.1-0.2,0.2-0.2l0.4,0.1c0.1,0,0.2,0.1,0.1,0.2
		C164.9,181.6,163.2,183.3,160.2,183.3z M159.8,171.1c-1.8,0-2.4,1.6-2.4,4.4h3.6c0.8,0,1.1-0.2,1.1-0.9
		C162.1,172.2,161.4,171.1,159.8,171.1z"/>
	<path class="st4" d="M176.1,183c-0.1,0-0.2-0.1-0.2-0.3v-1.8h-0.1c-0.8,1.5-2.2,2.4-4.1,2.4c-2.7,0-4.8-2.3-4.8-6.3
		c0-3.9,2.1-6.7,5.7-6.7c1.2,0,2.2,0.4,3,1.1h0.1v-3.3c0-1.9,0-2-0.6-2H174c-0.1,0-0.2,0-0.2-0.2v-0.4c0-0.1,0-0.2,0.2-0.2h4.8
		c0.2,0,0.2,0.1,0.2,0.2v14.7c0,1.8,0,2,0.6,2c0,0,0.9,0,1,0s0.2,0,0.2,0.2v0.4c0,0.1,0,0.2-0.2,0.2L176.1,183L176.1,183z
		 M175.7,172.5c-0.5-0.6-1.3-1.1-2.3-1.1c-2.2,0-2.8,2-2.8,5.3c0,3.4,0.9,5,2.6,5c1.2,0,2-0.8,2.5-1.9V172.5z"/>
</g>
<path id="pillar" class="st3" d="M353.7,81.8h29c1.3,0,2.4,1.1,2.4,2.4c0,1.3-1.1,2.4-2.4,2.4h-29c-1.3,0-2.4-1.1-2.4-2.4
	C351.3,82.8,352.4,81.8,353.7,81.8L353.7,81.8 M390,74.5v4.8h-43.5v-4.8H390 M375.5,89h4.8v33.9h-4.8V89 M356.1,89h4.8v33.9h-4.8V89
	 M365.8,89h4.8v33.9h-4.8V89z"/>
<path id="line-graph" class="st4" d="M101.4,102.1l3.9,1l2.9-4.6l-5.6-1.4c-1.4-0.3-2.8,0.5-3.1,1.9
	C99.2,100.4,100.1,101.8,101.4,102.1L101.4,102.1z M152.2,102.9l-12.7,11.5l-15-11.6c-0.3-0.2-0.6-0.4-1-0.5l-2-0.5l-2.9,4.6
	l3.1,0.8l16.2,12.6c1,0.8,2.4,0.7,3.3-0.1l14.3-12.9c1.1-0.9,1.1-2.6,0.2-3.6l0,0C154.9,102,153.3,101.9,152.2,102.9L152.2,102.9z
	 M124.2,90.3l13.9,8.9c1.2,0.8,2.7,0.4,3.5-0.7l14.3-20.7c0.8-1.2,0.5-2.8-0.7-3.6s-2.7-0.5-3.6,0.7l-12.9,18.6l-14-9
	c-1.2-0.8-2.8-0.4-3.6,0.8l0,0l-21.4,33.6c-0.7,1.2-0.4,2.8,0.9,3.6c1.2,0.7,2.7,0.4,3.5-0.8L124.2,90.3L124.2,90.3z"/>
<path id="Subtraction_61" class="st0" d="M367,0c8.9,0,17.8,0.9,26.6,2.7c8.5,1.7,16.8,4.3,24.8,7.7c7.8,3.3,15.4,7.4,22.4,12.2
	c7,4.7,13.6,10.1,19.5,16.1c6,6,11.4,12.5,16.1,19.5c4.8,7.1,8.8,14.6,12.2,22.4c3.4,8,6,16.3,7.7,24.8c1.8,8.8,2.7,17.7,2.7,26.6
	h-29.1c-0.1-56.7-46.1-102.6-102.8-102.7c-56.7,0-102.7,46-102.8,102.7H235c0-8.9,0.9-17.8,2.7-26.6c1.7-8.5,4.3-16.8,7.7-24.8
	c3.3-7.8,7.4-15.4,12.2-22.4c4.7-7,10.1-13.6,16.1-19.5c6-6,12.5-11.4,19.5-16.1c7.1-4.8,14.6-8.8,22.4-12.2c8-3.4,16.3-6,24.8-7.7
	C349.2,0.9,358.1,0,367,0z"/>
<g id="money-coin" transform="translate(811.559 2583)">
	<path id="Path_67420" class="st5" d="M-183.5-2493.3c0,3.6-5.1,6.5-11.5,6.5c-6.4,0-11.5-2.9-11.5-6.5c0-3.6,5.1-6.5,11.5-6.5
		C-188.6-2499.8-183.5-2496.9-183.5-2493.3L-183.5-2493.3z"/>
	<path id="Path_67421" class="st5" d="M-194.8-2483c-8.2,0-11.5-3.4-11.5-5.4v8.5c0,3.6,5.1,6.5,11.5,6.5c6.4,0,11.5-2.9,11.5-6.5
		v-8.3C-183.3-2486.2-186.6-2483-194.8-2483z"/>
	<path id="Path_67422" class="st5" d="M-194.8-2469.8c-7.3,0-11.5-3.3-11.5-5.3v8.5c0,3.6,5.1,6.5,11.5,6.5c6.4,0,11.5-2.9,11.5-6.5
		v-8.6C-183.3-2473.2-187.5-2469.8-194.8-2469.8L-194.8-2469.8z"/>
	<path id="Path_67423" class="st5" d="M-210.2-2506.5c0,3.6-5.8,6.5-13,6.5c-7.2,0-13-2.9-13-6.5s5.8-6.5,13-6.5
		C-216-2513-210.2-2510.1-210.2-2506.5z"/>
	<path id="Path_67424" class="st5" d="M-222.8-2496.2c-9.3,0-13-3.4-13-5.4v8.5c0,3.6,5.8,6.5,13,6.5s13-2.9,13-6.5v-8.3
		C-209.8-2499.4-213.5-2496.2-222.8-2496.2z"/>
	<path id="Path_67425" class="st5" d="M-222.8-2483c-8.3,0-13-3.3-13-5.3v8.5c0,3.6,5.8,6.5,13,6.5s13-2.9,13-6.5v-8.6
		C-209.8-2486.4-214.5-2483-222.8-2483L-222.8-2483z"/>
	<path id="Path_67426" class="st5" d="M-222.8-2469.8c-8.3,0-13-3.3-13-5.3v8.5c0,3.6,5.8,6.5,13,6.5s13-2.9,13-6.5v-8.6
		C-209.8-2473.2-214.5-2469.8-222.8-2469.8L-222.8-2469.8z"/>
</g>
<g class="st2">
	<path class="st6" d="M579.2,160.1c-0.2,0-0.2-0.1-0.2-0.2l-0.1-0.4c-1.1,0.5-2.8,0.8-4.5,0.8c-5,0-7.9-3.5-7.9-8.2
		c0-5.1,2.8-8.6,7.9-8.6c1.4,0,2.8,0.3,3.8,0.8l0.1-0.4c0-0.2,0-0.2,0.2-0.2h0.3c0.2,0,0.2,0,0.2,0.2v5c0,0.1,0,0.2-0.2,0.2h-0.5
		c-0.1,0-0.2,0-0.2-0.2v-0.4c-0.1-2.3-1.5-4.1-3.7-4.1c-3.1,0-3.9,2.4-3.9,7.7c0,4.3,0.9,7.3,4.2,7.3c2.5,0,4.1-1.6,4.3-4.3v-0.6
		c0-0.1,0-0.2,0.2-0.2h0.5c0.2,0,0.2,0,0.2,0.2l-0.2,5.4c0,0.1,0,0.2-0.2,0.2H579.2z"/>
	<path class="st6" d="M589.6,160c-0.1,0-0.2,0-0.2-0.2v-0.4c0-0.1,0-0.2,0.2-0.2h0.8c0.6,0,0.6-0.1,0.6-2v-5.9
		c0-1.9-0.8-2.6-2.1-2.6c-1.2,0-2,0.8-2.6,1.9v6.6c0,1.8,0,1.9,0.6,2h0.8c0.1,0,0.2,0,0.2,0.2v0.4c0,0.1,0,0.2-0.2,0.2h-6.3
		c-0.1,0-0.2,0-0.2-0.2v-0.4c0-0.1,0-0.2,0.2-0.2h1c0.6,0,0.6-0.1,0.6-2V145c0-1.8,0-2-0.6-2h-1c-0.1,0-0.2,0-0.2-0.2v-0.4
		c0-0.1,0-0.2,0.2-0.2h4.7c0.1,0,0.2,0.1,0.2,0.3v6.8l0,0c0.7-1.1,1.9-2.1,4-2.1c1.8,0,4,0.9,4,4.2v5.8c0,1.8,0,2,0.6,2h0.9
		c0.1,0,0.2,0,0.2,0.2v0.4c0,0.1,0,0.2-0.2,0.2H589.6z"/>
	<path class="st6" d="M603.4,160.3c-3.9,0-6.4-2.4-6.4-6.3c0-3.7,2.2-6.7,6.2-6.7c2.8,0,5.4,1.6,5.4,5.1v0.2c0,0.6-0.2,0.8-0.9,0.8
		h-7v0.4c0,3,0.8,5.2,3.6,5.2c1.9,0,3.1-1.1,3.5-2.6c0-0.1,0.1-0.2,0.2-0.2l0.4,0.1c0.1,0,0.2,0.1,0.1,0.2
		C608.1,158.6,606.4,160.3,603.4,160.3z M603,148.1c-1.8,0-2.4,1.6-2.4,4.4h3.6c0.8,0,1.1-0.2,1.1-0.9
		C605.3,149.2,604.5,148.1,603,148.1z"/>
	<path class="st6" d="M621.3,159.2c0.4,0,0.6-0.3,0.8-0.6c0-0.1,0.1-0.1,0.2-0.1l0.3,0.1c0.1,0,0.1,0.1,0.1,0.3
		c-0.3,0.9-1.2,1.4-2.5,1.4c-1.5,0-2.5-0.8-2.7-2.3h-0.1c-0.9,1.5-2.1,2.3-3.9,2.3c-2,0-3.5-1.1-3.5-3.2c0-2.2,1.2-3,4.2-3.9
		s3.1-1.1,3.1-1.8v-0.6c0-1.8-1.1-2.5-2.5-2.5c-0.7,0-1.4,0.2-1.9,0.5c0.3,0.6,0.5,1.1,0.5,1.6c0,0.7-0.3,1.2-1.3,1.2
		c-0.9,0-1.5-0.4-1.5-1.2c0-1.5,2.4-3.1,5.2-3.1c2.5,0,4.8,1.1,4.8,4v6.3C620.6,158.8,620.8,159.2,621.3,159.2z M617.3,153.1
		c-0.8,0.2-1.6,0.5-2.2,0.8c-1.2,0.6-1.6,1.3-1.6,2.6c0,1.4,0.6,2.3,1.6,2.3s1.7-0.7,2.3-1.7L617.3,153.1L617.3,153.1z"/>
	<path class="st6" d="M631.2,160.3c-1.2,0-2.2-0.4-3-1.1h-0.1v2.7c0,1.8,0,2,0.6,2h1.5c0.1,0,0.2,0,0.2,0.2v0.4c0,0.1,0,0.2-0.2,0.2
		h-7c-0.2,0-0.2,0-0.2-0.2v-0.4c0-0.1,0-0.2,0.2-0.2h1c0.6,0,0.6-0.2,0.6-2v-11.6c0-1.8,0-2-0.6-2h-1c-0.2,0-0.2,0-0.2-0.2v-0.4
		c0-0.1,0-0.2,0.2-0.2h4.5c0.1,0,0.2,0.1,0.2,0.3v1.8l0,0c0.9-1.5,2.2-2.4,4.1-2.4c2.7,0,4.8,2.3,4.8,6.3
		C636.9,157.5,634.8,160.3,631.2,160.3z M630.6,148.8c-1.2,0-1.9,0.8-2.5,1.8v7.4c0.5,0.6,1.3,1.1,2.3,1.1c2.2,0,2.8-2,2.8-5.3
		C633.2,150.4,632.4,148.8,630.6,148.8z"/>
</g>
<path class="st6" d="M733.8,131.6c0-8.8-0.9-17.5-2.7-26.2c-1.7-8.5-4.3-16.8-7.7-24.8c-3.4-7.8-7.4-15.3-12.2-22.4
	c-4.7-7-10.1-13.5-16.1-19.5c-5.9-6-12.5-11.4-19.5-16.1c-7-4.8-14.6-8.9-22.4-12.2c-8-3.4-16.3-6-24.8-7.7
	C619.6,0.9,610.7,0,601.8,0S584,0.9,575.2,2.7c-8.5,1.7-16.8,4.3-24.8,7.7c-7.8,3.4-15.3,7.4-22.4,12.2c-7,4.7-13.5,10.1-19.5,16.1
	c-6,5.9-11.4,12.5-16.1,19.5c-4.8,7-8.9,14.6-12.2,22.4c-3.4,8-6,16.3-7.7,24.8c-1.8,8.8-2.7,17.7-2.7,26.6h29.3
	c0.1-56.7,46.1-102.7,102.8-102.7c56.6,0.1,102.5,45.8,102.8,102.3h-9.4l25,33l25-33H733.8z"/>
<path id="Subtraction_55" class="st0" d="M132,264c-8.9,0-17.8-0.9-26.6-2.7c-8.5-1.7-16.8-4.3-24.8-7.7
	c-7.8-3.3-15.4-7.4-22.4-12.2c-7-4.7-13.6-10.1-19.5-16.1c-6-6-11.4-12.5-16.1-19.5c-4.8-7.1-8.8-14.6-12.2-22.4
	c-3.4-8-6-16.3-7.7-24.8C0.9,149.8,0,140.9,0,132h29.1c0.1,56.7,46.1,102.6,102.8,102.7c56.7,0,102.7-46,102.8-102.7H264
	c0,8.9-0.9,17.8-2.7,26.6c-1.7,8.5-4.3,16.8-7.7,24.8c-3.3,7.8-7.4,15.4-12.2,22.4c-4.7,7-10.1,13.6-16.1,19.5
	c-6,6-12.5,11.4-19.5,16.1c-7.1,4.8-14.6,8.8-22.4,12.2c-8,3.4-16.3,6-24.8,7.7C149.8,263.1,140.9,264,132,264z"/>
<path class="st7" d="M485.2,99l-25,33h9.5c-0.1,56.7-46.1,102.7-102.8,102.7c-56.7-0.1-102.7-46-102.8-102.7H235
	c0,8.9,0.9,17.8,2.7,26.6c1.7,8.5,4.3,16.8,7.7,24.8c3.4,7.8,7.4,15.3,12.2,22.4c4.7,7,10.1,13.5,16.1,19.5
	c5.9,6,12.5,11.4,19.5,16.1c7,4.8,14.6,8.9,22.4,12.2c8,3.4,16.3,6,24.8,7.7c8.8,1.8,17.7,2.7,26.6,2.7s17.8-0.9,26.6-2.7
	c8.5-1.7,16.8-4.3,24.8-7.7c7.8-3.4,15.3-7.4,22.4-12.2c7-4.7,13.5-10.1,19.5-16.1c6-5.9,11.4-12.5,16.1-19.5
	c4.8-7,8.9-14.6,12.2-22.4c3.4-8,6-16.3,7.7-24.8c1.8-8.8,2.7-17.7,2.7-26.6h11.2L485.2,99z"/>
<path class="st4" d="M264,131c-0.1-8.6-1-17.1-2.7-25.6c-1.7-8.5-4.3-16.8-7.7-24.8c-3.4-7.8-7.4-15.3-12.2-22.4
	c-4.7-7-10.1-13.5-16.1-19.5c-5.9-6-12.5-11.4-19.5-16.1c-7-4.8-14.6-8.9-22.4-12.2c-8-3.4-16.3-6-24.8-7.7C149.8,0.9,140.9,0,132,0
	s-17.8,0.9-26.6,2.7C96.9,4.4,88.6,7,80.6,10.4c-7.8,3.4-15.3,7.4-22.4,12.2c-7,4.7-13.5,10.1-19.5,16.1c-6,5.9-11.4,12.5-16.1,19.5
	c-4.8,7-8.9,14.6-12.2,22.4c-3.4,8-6,16.3-7.7,24.8C0.9,114.2,0,123.1,0,132h29.3C29.4,75.3,75.4,29.3,132.1,29.3
	c56.4,0.1,102.1,45.5,102.8,101.7H225l25,34l25-34H264z"/>
<g class="st2">
	<path class="st1" d="M806.4,160.1c-0.2,0-0.2-0.1-0.2-0.2l-0.1-0.4c-1.1,0.5-2.8,0.8-4.5,0.8c-5,0-7.9-3.5-7.9-8.2
		c0-5.1,2.8-8.6,7.9-8.6c1.4,0,2.8,0.3,3.8,0.8l0.1-0.4c0-0.2,0-0.2,0.2-0.2h0.3c0.2,0,0.2,0,0.2,0.2v5c0,0.1,0,0.2-0.2,0.2h-0.5
		c-0.1,0-0.2,0-0.2-0.2v-0.4c-0.1-2.3-1.5-4.1-3.7-4.1c-3.1,0-3.9,2.4-3.9,7.7c0,4.3,0.9,7.3,4.2,7.3c2.5,0,4.1-1.6,4.3-4.3v-0.6
		c0-0.1,0-0.2,0.2-0.2h0.5c0.2,0,0.2,0,0.2,0.2l-0.2,5.4c0,0.1,0,0.2-0.2,0.2H806.4z"/>
	<path class="st1" d="M820.1,159.2c0.4,0,0.6-0.3,0.8-0.6c0-0.1,0.1-0.1,0.2-0.1l0.3,0.1c0.1,0,0.1,0.1,0.1,0.3
		c-0.3,0.9-1.2,1.4-2.5,1.4c-1.5,0-2.5-0.8-2.7-2.3h-0.1c-0.9,1.5-2.1,2.3-3.9,2.3c-2,0-3.5-1.1-3.5-3.2c0-2.2,1.2-3,4.2-3.9
		s3.1-1.1,3.1-1.8v-0.6c0-1.8-1.1-2.5-2.5-2.5c-0.7,0-1.4,0.2-1.9,0.5c0.3,0.6,0.5,1.1,0.5,1.6c0,0.7-0.3,1.2-1.3,1.2
		c-0.9,0-1.5-0.4-1.5-1.2c0-1.5,2.4-3.1,5.2-3.1c2.5,0,4.8,1.1,4.8,4v6.3C819.4,158.8,819.6,159.2,820.1,159.2z M816.1,153.1
		c-0.8,0.2-1.6,0.5-2.2,0.8c-1.2,0.6-1.6,1.3-1.6,2.6c0,1.4,0.6,2.3,1.6,2.3s1.7-0.7,2.3-1.7v-4H816.1z"/>
	<path class="st1" d="M827.1,160.3c-2,0-3.6-1.2-3.6-3.7v-8h-1.6c-0.1,0-0.2,0-0.2-0.2v-0.6c0-0.1,0-0.2,0.2-0.2l1.6-0.1v-2.4
		c0-0.1,0-0.2,0.2-0.3c0.8-0.4,1.8-0.8,2.5-1.4c0.1-0.1,0.2-0.1,0.3-0.1h0.2c0.1,0,0.1,0,0.1,0.2v4h2.7c0.2,0,0.2,0,0.2,0.2v0.7
		c0,0.1,0,0.2-0.2,0.2h-2.7v8.3c0,1.4,0.3,2.1,1.3,2.1c0.7,0,1.2-0.4,1.3-1.3c0-0.1,0.1-0.2,0.2-0.2h0.4c0.1,0,0.2,0.1,0.1,0.2
		C829.9,159.4,828.8,160.3,827.1,160.3z"/>
	<path class="st1" d="M842.4,159.2c0.4,0,0.6-0.3,0.8-0.6c0-0.1,0.1-0.1,0.2-0.1l0.3,0.1c0.1,0,0.1,0.1,0.1,0.3
		c-0.3,0.9-1.2,1.4-2.5,1.4c-1.5,0-2.5-0.8-2.7-2.3h-0.1c-0.9,1.5-2.1,2.3-3.9,2.3c-2,0-3.5-1.1-3.5-3.2c0-2.2,1.2-3,4.2-3.9
		s3.1-1.1,3.1-1.8v-0.6c0-1.8-1.1-2.5-2.5-2.5c-0.7,0-1.4,0.2-1.9,0.5c0.3,0.6,0.5,1.1,0.5,1.6c0,0.7-0.3,1.2-1.3,1.2
		c-0.9,0-1.5-0.4-1.5-1.2c0-1.5,2.4-3.1,5.2-3.1c2.5,0,4.8,1.1,4.8,4v6.3C841.7,158.8,841.9,159.2,842.4,159.2z M838.4,153.1
		c-0.8,0.2-1.6,0.5-2.2,0.8c-1.2,0.6-1.6,1.3-1.6,2.6c0,1.4,0.6,2.3,1.6,2.3s1.7-0.7,2.3-1.7v-4H838.4z"/>
	<path class="st1" d="M844.3,160c-0.1,0-0.2,0-0.2-0.2v-0.4c0-0.1,0-0.2,0.2-0.2h1c0.6,0,0.6-0.1,0.6-2V145c0-1.8,0-2-0.6-2h-1
		c-0.1,0-0.2,0-0.2-0.2v-0.4c0-0.1,0-0.2,0.2-0.2h4.7c0.1,0,0.2,0.1,0.2,0.3v14.7c0,1.8,0,2,0.6,2h1c0.1,0,0.2,0,0.2,0.2v0.4
		c0,0.1,0,0.2-0.2,0.2H844.3z"/>
	<path class="st1" d="M863.2,148.4c-0.5,0-0.7,0.3-1.1,1.2c-0.2,0.5-0.5,1.3-0.8,2.2l-3.4,9.6c-0.3,0.8-0.5,1.4-0.5,1.8
		c0,0.5,0.2,0.7,0.8,0.7h0.6c0.1,0,0.2,0,0.2,0.2v0.4c0,0.1,0,0.2-0.2,0.2h-5.1c-0.1,0-0.2,0-0.2-0.2v-0.4c0-0.1,0-0.2,0.2-0.2h0.8
		c1.1,0,1.6-0.7,2.2-2.6l0.3-1.1c0.1-0.2,0-0.3,0-0.5l-4.5-9.4c-0.9-1.9-1-2.1-1.6-2.1h-0.1c-0.1,0-0.2,0-0.2-0.2v-0.4
		c0-0.1,0-0.2,0.2-0.2h6c0.1,0,0.2,0,0.2,0.2v0.4c0,0.1,0,0.2-0.2,0.2h-0.6c-0.4,0-0.6,0.1-0.6,0.5c0,0.3,0.2,0.8,0.5,1.7l2.4,5.7
		l0,0l1.4-4.3c0.3-0.9,0.6-1.8,0.6-2.4c0-0.7-0.3-1.1-0.9-1.1H859c-0.1,0-0.2,0-0.2-0.2v-0.4c0-0.1,0-0.2,0.2-0.2h4.2
		c0.1,0,0.2,0,0.2,0.2v0.4c0,0.1,0,0.2-0.2,0.2L863.2,148.4z"/>
	<path class="st1" d="M868.3,160.3c-1.2,0-2.4-0.3-3.2-0.8v0.4c0,0.1,0,0.2-0.2,0.2h-0.3c-0.1,0-0.2,0-0.2-0.2l-0.2-3.9
		c0-0.1,0-0.2,0.2-0.2h0.4c0.1,0,0.2,0,0.2,0.2v0.5c0.2,1.5,1.5,3,3.3,3c1.4,0,2.3-0.6,2.3-1.8c0-1.3-1.3-2-2.8-2.7
		c-1.8-0.8-3.5-1.8-3.5-4.1c0-2.1,1.7-3.7,4.4-3.7c1,0,2.1,0.3,2.8,0.7l0.1-0.4c0-0.1,0-0.2,0.2-0.2h0.3c0.1,0,0.2,0,0.2,0.2v3.6
		c0,0.2,0,0.2-0.2,0.2h-0.4c-0.1,0-0.2,0-0.2-0.2v-0.3c0-1.7-1.3-2.9-2.7-2.9c-1.2,0-1.8,0.6-1.8,1.5c0,1.2,1.1,1.8,2.7,2.6
		c2,1,3.6,1.8,3.6,4.3C873.4,158.8,871.1,160.3,868.3,160.3z"/>
	<path class="st1" d="M879.5,160.3c-2,0-3.6-1.2-3.6-3.7v-8h-1.6c-0.1,0-0.2,0-0.2-0.2v-0.6c0-0.1,0-0.2,0.2-0.2l1.6-0.1v-2.4
		c0-0.1,0-0.2,0.2-0.3c0.8-0.4,1.8-0.8,2.5-1.4c0.1-0.1,0.2-0.1,0.3-0.1h0.2c0.1,0,0.1,0,0.1,0.2v4h2.7c0.2,0,0.2,0,0.2,0.2v0.7
		c0,0.1,0,0.2-0.2,0.2h-2.7v8.3c0,1.4,0.3,2.1,1.3,2.1c0.7,0,1.2-0.4,1.3-1.3c0-0.1,0.1-0.2,0.2-0.2h0.4c0.1,0,0.2,0.1,0.1,0.2
		C882.3,159.4,881.2,160.3,879.5,160.3z"/>
</g>
<g id="Group_741" transform="translate(11.768 -194.367)">
	<path id="Union_42" class="st1" d="M791.9,301.1c0-1.9,1.5-3.4,3.4-3.4c0.9,0,1.8,0.4,2.4,1l6.5-2c0.2-1.9,1.8-3.3,3.7-3.1
		c1.6,0.1,2.8,1.3,3.1,2.8l8.4,2.3c0.6-1.8,2.5-2.8,4.3-2.3c0.5,0.2,1,0.5,1.4,0.8l20.4-19.8c-0.6-1.8,0.4-3.7,2.2-4.3
		c1.8-0.6,3.7,0.4,4.3,2.2s-0.4,3.7-2.2,4.3c-0.3,0.1-0.7,0.2-1,0.2c-0.7,0-1.5-0.2-2.1-0.7l-20.6,20.1c0,0.2,0,0.3,0,0.5
		c0,1.9-1.5,3.4-3.4,3.4c-1.5,0-2.8-0.9-3.2-2.3l-8.7-2.4c-0.8,1.7-2.9,2.4-4.6,1.6c-0.6-0.3-1.1-0.8-1.5-1.4l-6,1.8
		c0,0.2,0,0.4,0.1,0.6c0,1.9-1.5,3.5-3.4,3.5S791.9,303,791.9,301.1C791.9,301.2,791.9,301.2,791.9,301.1L791.9,301.1z"/>
	<path id="Line_10534" class="st1" d="M864,317.2h-75.5v-2.1H864V317.2z"/>
</g>
</svg>
